<svg version="1.1" viewBox="0.0 0.0 600.0 371.0" fill="none" stroke="none" stroke-linecap="square" stroke-miterlimit="10" width="600" height="371" xmlns:xlink="http://www.w3.org/1999/xlink" xmlns="http://www.w3.org/2000/svg"><path fill="#ffffff" d="M0 0L600.0 0L600.0 371.0L0 371.0L0 0Z" fill-rule="nonzero"/><path stroke="#cccccc" stroke-width="1.0" stroke-linecap="butt" d="M118.5 88.5L118.5 300.5" fill-rule="nonzero"/><path stroke="#cccccc" stroke-width="1.0" stroke-linecap="butt" d="M246.5 88.5L246.5 300.5" fill-rule="nonzero"/><path stroke="#cccccc" stroke-width="1.0" stroke-linecap="butt" d="M376.5 88.5L376.5 300.5" fill-rule="nonzero"/><path stroke="#cccccc" stroke-width="1.0" stroke-linecap="butt" d="M505.5 88.5L505.5 300.5" fill-rule="nonzero"/><path stroke="#333333" stroke-width="1.0" stroke-linecap="butt" d="M45.5 300.5L581.5 300.5" fill-rule="nonzero"/><path stroke="#cccccc" stroke-width="1.0" stroke-linecap="butt" d="M45.5 258.5L581.5 258.5" fill-rule="nonzero"/><path stroke="#cccccc" stroke-width="1.0" stroke-linecap="butt" d="M45.5 215.5L581.5 215.5" fill-rule="nonzero"/><path stroke="#cccccc" stroke-width="1.0" stroke-linecap="butt" d="M45.5 173.5L581.5 173.5" fill-rule="nonzero"/><path stroke="#cccccc" stroke-width="1.0" stroke-linecap="butt" d="M45.5 130.5L581.5 130.5" fill-rule="nonzero"/><path stroke="#cccccc" stroke-width="1.0" stroke-linecap="butt" d="M45.5 88.5L581.5 88.5" fill-rule="nonzero"/><clipPath id="id_0"><path d="M45.55 88.28333L581.45 88.28333L581.45 300.45L45.55 300.45L45.55 88.28333Z" clip-rule="nonzero"/></clipPath><path stroke="#4285f4" stroke-width="2.0" stroke-linecap="butt" clip-path="url(#id_0)" d="M45.55 280.082L77.90092 275.83865L153.85526 267.77634L196.0521 266.50333L212.93085 265.23035L246.68832 260.56265L259.34738 260.13834L315.60983 256.74365L324.04922 256.74365L359.21326 246.984L373.27887 246.13533L377.49857 246.13533L383.12482 246.13533L388.75104 246.13533L391.56418 246.13533L411.25604 236.37567L415.4757 236.37567L468.92508 227.889L492.8366 220.67534L581.45 184.18266" fill-rule="nonzero"/><path stroke="#ea4335" stroke-width="2.0" stroke-linecap="butt" clip-path="url(#id_0)" d="M45.55 285.59833L77.90092 283.47665L153.85526 268.20065L196.0521 263.95734L212.93085 259.28967L246.68832 251.65167L259.34738 247.83267L315.60983 243.165L324.04922 242.74066L359.21326 232.981L373.27887 230.85933L377.49857 230.435L383.12482 229.58633L388.75104 228.31334L391.56418 227.889L411.25604 214.31033L415.4757 213.46167L468.92508 187.153L492.8366 173.57434L581.45 121.38133" fill-rule="nonzero"/><path fill="#000000" fill-opacity="0.0" clip-path="url(#id_0)" d="M48.55 280.082C48.55 281.73886 47.206856 283.082 45.55 283.082C43.893147 283.082 42.55 281.73886 42.55 280.082C42.55 278.42514 43.893147 277.082 45.55 277.082C47.206856 277.082 48.55 278.42514 48.55 280.082Z" fill-rule="nonzero"/><path fill="#000000" fill-opacity="0.0" clip-path="url(#id_0)" d="M80.90092 275.83865C80.90092 277.4955 79.55777 278.83865 77.90092 278.83865C76.244064 278.83865 74.90092 277.4955 74.90092 275.83865C74.90092 274.18182 76.244064 272.83865 77.90092 272.83865C79.55777 272.83865 80.90092 274.18182 80.90092 275.83865Z" fill-rule="nonzero"/><path fill="#000000" fill-opacity="0.0" clip-path="url(#id_0)" d="M156.85526 267.77634C156.85526 269.4332 155.5121 270.77634 153.85526 270.77634C152.1984 270.77634 150.85526 269.4332 150.85526 267.77634C150.85526 266.11948 152.1984 264.77634 153.85526 264.77634C155.5121 264.77634 156.85526 266.11948 156.85526 267.77634Z" fill-rule="nonzero"/><path fill="#000000" fill-opacity="0.0" clip-path="url(#id_0)" d="M199.0521 266.50333C199.0521 268.1602 197.70895 269.50333 196.0521 269.50333C194.39525 269.50333 193.0521 268.1602 193.0521 266.50333C193.0521 264.84647 194.39525 263.50333 196.0521 263.50333C197.70895 263.50333 199.0521 264.84647 199.0521 266.50333Z" fill-rule="nonzero"/><path fill="#000000" fill-opacity="0.0" clip-path="url(#id_0)" d="M215.93085 265.23035C215.93085 266.88718 214.58769 268.23035 212.93085 268.23035C211.27399 268.23035 209.93085 266.88718 209.93085 265.23035C209.93085 263.5735 211.27399 262.23035 212.93085 262.23035C214.58769 262.23035 215.93085 263.5735 215.93085 265.23035Z" fill-rule="nonzero"/><path fill="#000000" fill-opacity="0.0" clip-path="url(#id_0)" d="M249.68832 260.56265C249.68832 262.2195 248.34517 263.56265 246.68832 263.56265C245.03146 263.56265 243.68832 262.2195 243.68832 260.56265C243.68832 258.90582 245.03146 257.56265 246.68832 257.56265C248.34517 257.56265 249.68832 258.90582 249.68832 260.56265Z" fill-rule="nonzero"/><path fill="#000000" fill-opacity="0.0" clip-path="url(#id_0)" d="M262.34738 260.13834C262.34738 261.7952 261.00424 263.13834 259.34738 263.13834C257.69052 263.13834 256.34738 261.7952 256.34738 260.13834C256.34738 258.48148 257.69052 257.13834 259.34738 257.13834C261.00424 257.13834 262.34738 258.48148 262.34738 260.13834Z" fill-rule="nonzero"/><path fill="#000000" fill-opacity="0.0" clip-path="url(#id_0)" d="M318.60983 256.74365C318.60983 258.4005 317.2667 259.74365 315.60983 259.74365C313.953 259.74365 312.60983 258.4005 312.60983 256.74365C312.60983 255.0868 313.953 253.74367 315.60983 253.74367C317.2667 253.74367 318.60983 255.0868 318.60983 256.74365Z" fill-rule="nonzero"/><path fill="#000000" fill-opacity="0.0" clip-path="url(#id_0)" d="M327.04922 256.74365C327.04922 258.4005 325.70605 259.74365 324.04922 259.74365C322.39236 259.74365 321.04922 258.4005 321.04922 256.74365C321.04922 255.0868 322.39236 253.74367 324.04922 253.74367C325.70605 253.74367 327.04922 255.0868 327.04922 256.74365Z" fill-rule="nonzero"/><path fill="#000000" fill-opacity="0.0" clip-path="url(#id_0)" d="M362.21326 246.984C362.21326 248.64085 360.87012 249.984 359.21326 249.984C357.5564 249.984 356.21326 248.64085 356.21326 246.984C356.21326 245.32715 357.5564 243.984 359.21326 243.984C360.87012 243.984 362.21326 245.32715 362.21326 246.984Z" fill-rule="nonzero"/><path fill="#000000" fill-opacity="0.0" clip-path="url(#id_0)" d="M376.27887 246.13533C376.27887 247.79219 374.93573 249.13533 373.27887 249.13533C371.622 249.13533 370.27887 247.79219 370.27887 246.13533C370.27887 244.47849 371.622 243.13533 373.27887 243.13533C374.93573 243.13533 376.27887 244.47849 376.27887 246.13533Z" fill-rule="nonzero"/><path fill="#000000" fill-opacity="0.0" clip-path="url(#id_0)" d="M380.49857 246.13533C380.49857 247.79219 379.1554 249.13533 377.49857 249.13533C375.8417 249.13533 374.49857 247.79219 374.49857 246.13533C374.49857 244.47849 375.8417 243.13533 377.49857 243.13533C379.1554 243.13533 380.49857 244.47849 380.49857 246.13533Z" fill-rule="nonzero"/><path fill="#000000" fill-opacity="0.0" clip-path="url(#id_0)" d="M386.12482 246.13533C386.12482 247.79219 384.78165 249.13533 383.12482 249.13533C381.46796 249.13533 380.12482 247.79219 380.12482 246.13533C380.12482 244.47849 381.46796 243.13533 383.12482 243.13533C384.78165 243.13533 386.12482 244.47849 386.12482 246.13533Z" fill-rule="nonzero"/><path fill="#000000" fill-opacity="0.0" clip-path="url(#id_0)" d="M391.75104 246.13533C391.75104 247.79219 390.4079 249.13533 388.75104 249.13533C387.0942 249.13533 385.75104 247.79219 385.75104 246.13533C385.75104 244.47849 387.0942 243.13533 388.75104 243.13533C390.4079 243.13533 391.75104 244.47849 391.75104 246.13533Z" fill-rule="nonzero"/><path fill="#000000" fill-opacity="0.0" clip-path="url(#id_0)" d="M394.56418 246.13533C394.56418 247.79219 393.22104 249.13533 391.56418 249.13533C389.90732 249.13533 388.56418 247.79219 388.56418 246.13533C388.56418 244.47849 389.90732 243.13533 391.56418 243.13533C393.22104 243.13533 394.56418 244.47849 394.56418 246.13533Z" fill-rule="nonzero"/><path fill="#000000" fill-opacity="0.0" clip-path="url(#id_0)" d="M414.25604 236.37567C414.25604 238.03252 412.9129 239.37567 411.25604 239.37567C409.59918 239.37567 408.25604 238.03252 408.25604 236.37567C408.25604 234.71881 409.59918 233.37567 411.25604 233.37567C412.9129 233.37567 414.25604 234.71881 414.25604 236.37567Z" fill-rule="nonzero"/><path fill="#000000" fill-opacity="0.0" clip-path="url(#id_0)" d="M418.4757 236.37567C418.4757 238.03252 417.13257 239.37567 415.4757 239.37567C413.81888 239.37567 412.4757 238.03252 412.4757 236.37567C412.4757 234.71881 413.81888 233.37567 415.4757 233.37567C417.13257 233.37567 418.4757 234.71881 418.4757 236.37567Z" fill-rule="nonzero"/><path fill="#000000" fill-opacity="0.0" clip-path="url(#id_0)" d="M471.92508 227.889C471.92508 229.54585 470.5819 230.889 468.92508 230.889C467.26822 230.889 465.92508 229.54585 465.92508 227.889C465.92508 226.23215 467.26822 224.889 468.92508 224.889C470.5819 224.889 471.92508 226.23215 471.92508 227.889Z" fill-rule="nonzero"/><path fill="#000000" fill-opacity="0.0" clip-path="url(#id_0)" d="M495.8366 220.67534C495.8366 222.33218 494.49347 223.67534 492.8366 223.67534C491.17975 223.67534 489.8366 222.33218 489.8366 220.67534C489.8366 219.01848 491.17975 217.67534 492.8366 217.67534C494.49347 217.67534 495.8366 219.01848 495.8366 220.67534Z" fill-rule="nonzero"/><path fill="#000000" fill-opacity="0.0" clip-path="url(#id_0)" d="M584.45 184.18266C584.45 185.83952 583.1069 187.18266 581.45 187.18266C579.79315 187.18266 578.45 185.83952 578.45 184.18266C578.45 182.52582 579.79315 181.18266 581.45 181.18266C583.1069 181.18266 584.45 182.52582 584.45 184.18266Z" fill-rule="nonzero"/><path fill="#000000" fill-opacity="0.0" clip-path="url(#id_0)" d="M48.55 285.59833C48.55 287.2552 47.206856 288.59833 45.55 288.59833C43.893147 288.59833 42.55 287.2552 42.55 285.59833C42.55 283.94147 43.893147 282.59833 45.55 282.59833C47.206856 282.59833 48.55 283.94147 48.55 285.59833Z" fill-rule="nonzero"/><path fill="#000000" fill-opacity="0.0" clip-path="url(#id_0)" d="M80.90092 283.47665C80.90092 285.1335 79.55777 286.47665 77.90092 286.47665C76.244064 286.47665 74.90092 285.1335 74.90092 283.47665C74.90092 281.81982 76.244064 280.47665 77.90092 280.47665C79.55777 280.47665 80.90092 281.81982 80.90092 283.47665Z" fill-rule="nonzero"/><path fill="#000000" fill-opacity="0.0" clip-path="url(#id_0)" d="M156.85526 268.20065C156.85526 269.8575 155.5121 271.20065 153.85526 271.20065C152.1984 271.20065 150.85526 269.8575 150.85526 268.20065C150.85526 266.54382 152.1984 265.20065 153.85526 265.20065C155.5121 265.20065 156.85526 266.54382 156.85526 268.20065Z" fill-rule="nonzero"/><path fill="#000000" fill-opacity="0.0" clip-path="url(#id_0)" d="M199.0521 263.95734C199.0521 265.6142 197.70895 266.95734 196.0521 266.95734C194.39525 266.95734 193.0521 265.6142 193.0521 263.95734C193.0521 262.30048 194.39525 260.95734 196.0521 260.95734C197.70895 260.95734 199.0521 262.30048 199.0521 263.95734Z" fill-rule="nonzero"/><path fill="#000000" fill-opacity="0.0" clip-path="url(#id_0)" d="M215.93085 259.28967C215.93085 260.94653 214.58769 262.28967 212.93085 262.28967C211.27399 262.28967 209.93085 260.94653 209.93085 259.28967C209.93085 257.6328 211.27399 256.28967 212.93085 256.28967C214.58769 256.28967 215.93085 257.6328 215.93085 259.28967Z" fill-rule="nonzero"/><path fill="#000000" fill-opacity="0.0" clip-path="url(#id_0)" d="M249.68832 251.65167C249.68832 253.30852 248.34517 254.65167 246.68832 254.65167C245.03146 254.65167 243.68832 253.30852 243.68832 251.65167C243.68832 249.99481 245.03146 248.65167 246.68832 248.65167C248.34517 248.65167 249.68832 249.99481 249.68832 251.65167Z" fill-rule="nonzero"/><path fill="#000000" fill-opacity="0.0" clip-path="url(#id_0)" d="M262.34738 247.83267C262.34738 249.48952 261.00424 250.83267 259.34738 250.83267C257.69052 250.83267 256.34738 249.48952 256.34738 247.83267C256.34738 246.17581 257.69052 244.83267 259.34738 244.83267C261.00424 244.83267 262.34738 246.17581 262.34738 247.83267Z" fill-rule="nonzero"/><path fill="#000000" fill-opacity="0.0" clip-path="url(#id_0)" d="M318.60983 243.165C318.60983 244.82185 317.2667 246.165 315.60983 246.165C313.953 246.165 312.60983 244.82185 312.60983 243.165C312.60983 241.50815 313.953 240.165 315.60983 240.165C317.2667 240.165 318.60983 241.50815 318.60983 243.165Z" fill-rule="nonzero"/><path fill="#000000" fill-opacity="0.0" clip-path="url(#id_0)" d="M327.04922 242.74066C327.04922 244.39752 325.70605 245.74066 324.04922 245.74066C322.39236 245.74066 321.04922 244.39752 321.04922 242.74066C321.04922 241.08382 322.39236 239.74066 324.04922 239.74066C325.70605 239.74066 327.04922 241.08382 327.04922 242.74066Z" fill-rule="nonzero"/><path fill="#000000" fill-opacity="0.0" clip-path="url(#id_0)" d="M362.21326 232.981C362.21326 234.63785 360.87012 235.981 359.21326 235.981C357.5564 235.981 356.21326 234.63785 356.21326 232.981C356.21326 231.32414 357.5564 229.981 359.21326 229.981C360.87012 229.981 362.21326 231.32414 362.21326 232.981Z" fill-rule="nonzero"/><path fill="#000000" fill-opacity="0.0" clip-path="url(#id_0)" d="M376.27887 230.85933C376.27887 232.51619 374.93573 233.85933 373.27887 233.85933C371.622 233.85933 370.27887 232.51619 370.27887 230.85933C370.27887 229.20248 371.622 227.85933 373.27887 227.85933C374.93573 227.85933 376.27887 229.20248 376.27887 230.85933Z" fill-rule="nonzero"/><path fill="#000000" fill-opacity="0.0" clip-path="url(#id_0)" d="M380.49857 230.435C380.49857 232.09186 379.1554 233.435 377.49857 233.435C375.8417 233.435 374.49857 232.09186 374.49857 230.435C374.49857 228.77815 375.8417 227.435 377.49857 227.435C379.1554 227.435 380.49857 228.77815 380.49857 230.435Z" fill-rule="nonzero"/><path fill="#000000" fill-opacity="0.0" clip-path="url(#id_0)" d="M386.12482 229.58633C386.12482 231.2432 384.78165 232.58633 383.12482 232.58633C381.46796 232.58633 380.12482 231.2432 380.12482 229.58633C380.12482 227.92947 381.46796 226.58633 383.12482 226.58633C384.78165 226.58633 386.12482 227.92947 386.12482 229.58633Z" fill-rule="nonzero"/><path fill="#000000" fill-opacity="0.0" clip-path="url(#id_0)" d="M391.75104 228.31334C391.75104 229.97018 390.4079 231.31334 388.75104 231.31334C387.0942 231.31334 385.75104 229.97018 385.75104 228.31334C385.75104 226.65648 387.0942 225.31334 388.75104 225.31334C390.4079 225.31334 391.75104 226.65648 391.75104 228.31334Z" fill-rule="nonzero"/><path fill="#000000" fill-opacity="0.0" clip-path="url(#id_0)" d="M394.56418 227.889C394.56418 229.54585 393.22104 230.889 391.56418 230.889C389.90732 230.889 388.56418 229.54585 388.56418 227.889C388.56418 226.23215 389.90732 224.889 391.56418 224.889C393.22104 224.889 394.56418 226.23215 394.56418 227.889Z" fill-rule="nonzero"/><path fill="#000000" fill-opacity="0.0" clip-path="url(#id_0)" d="M414.25604 214.31033C414.25604 215.9672 412.9129 217.31033 411.25604 217.31033C409.59918 217.31033 408.25604 215.9672 408.25604 214.31033C408.25604 212.65347 409.59918 211.31033 411.25604 211.31033C412.9129 211.31033 414.25604 212.65347 414.25604 214.31033Z" fill-rule="nonzero"/><path fill="#000000" fill-opacity="0.0" clip-path="url(#id_0)" d="M418.4757 213.46167C418.4757 215.11852 417.13257 216.46167 415.4757 216.46167C413.81888 216.46167 412.4757 215.11852 412.4757 213.46167C412.4757 211.80481 413.81888 210.46167 415.4757 210.46167C417.13257 210.46167 418.4757 211.80481 418.4757 213.46167Z" fill-rule="nonzero"/><path fill="#000000" fill-opacity="0.0" clip-path="url(#id_0)" d="M471.92508 187.153C471.92508 188.80986 470.5819 190.153 468.92508 190.153C467.26822 190.153 465.92508 188.80986 465.92508 187.153C465.92508 185.49614 467.26822 184.153 468.92508 184.153C470.5819 184.153 471.92508 185.49614 471.92508 187.153Z" fill-rule="nonzero"/><path fill="#000000" fill-opacity="0.0" clip-path="url(#id_0)" d="M495.8366 173.57434C495.8366 175.23119 494.49347 176.57434 492.8366 176.57434C491.17975 176.57434 489.8366 175.23119 489.8366 173.57434C489.8366 171.91748 491.17975 170.57434 492.8366 170.57434C494.49347 170.57434 495.8366 171.91748 495.8366 173.57434Z" fill-rule="nonzero"/><path fill="#000000" fill-opacity="0.0" clip-path="url(#id_0)" d="M584.45 121.38133C584.45 123.038185 583.1069 124.38133 581.45 124.38133C579.79315 124.38133 578.45 123.038185 578.45 121.38133C578.45 119.72448 579.79315 118.38133 581.45 118.38133C583.1069 118.38133 584.45 119.72448 584.45 121.38133Z" fill-rule="nonzero"/><path fill="#000000" d="M326.29376 346.66876L327.41876 346.5594L327.40314 346.8719Q327.40314 347.35626 327.6375 347.77814Q327.8719 348.1844 328.3875 348.41876Q328.91876 348.6375 329.65314 348.6375Q330.6844 348.6375 331.21564 348.1844Q331.7625 347.73126 331.7625 347.15314Q331.7625 346.7469 331.48126 346.41876Q331.1844 346.09064 329.8719 345.52814Q328.85626 345.09064 328.4969 344.85626Q327.91876 344.48126 327.6375 344.02814Q327.35626 343.575 327.35626 342.9969Q327.35626 342.34064 327.71564 341.8094Q328.09064 341.27814 328.77814 340.9969Q329.48126 340.71564 330.3719 340.71564Q331.41876 340.71564 332.1375 341.075Q332.85626 341.41876 333.1844 342.0125Q333.5125 342.59064 333.5125 343.1219Q333.5125 343.16876 333.4969 343.29376L332.3875 343.3875Q332.3875 343.02814 332.325 342.8094Q332.21564 342.46564 331.96564 342.21564Q331.71564 341.96564 331.27814 341.825Q330.85626 341.66876 330.325 341.66876Q329.3875 341.66876 328.8719 342.09064Q328.46564 342.41876 328.46564 342.95Q328.46564 343.2625 328.6219 343.5125Q328.79376 343.7625 329.23126 343.9969Q329.52814 344.16876 330.66876 344.66876Q331.59064 345.09064 331.95 345.325Q332.41876 345.6219 332.66876 346.075Q332.91876 346.5125 332.91876 347.075Q332.91876 347.77814 332.4969 348.3719Q332.075 348.95 331.325 349.27814Q330.575 349.59064 329.60626 349.59064Q328.15314 349.59064 327.21564 348.96564Q326.29376 348.325 326.29376 346.66876ZM334.04376 347.09064Q334.04376 345.2625 335.10626 344.075Q335.9969 343.09064 337.4344 343.09064Q338.5594 343.09064 339.2469 343.79376Q339.9344 344.4969 339.9344 345.6844Q339.9344 346.7625 339.4969 347.6844Q339.0594 348.60626 338.2625 349.10626Q337.46564 349.59064 336.575 349.59064Q335.85626 349.59064 335.2625 349.27814Q334.66876 348.96564 334.35626 348.40314Q334.04376 347.825 334.04376 347.09064ZM335.09064 346.98126Q335.09064 347.85626 335.5125 348.3094Q335.9344 348.7625 336.59064 348.7625Q336.9344 348.7625 337.2625 348.6375Q337.60626 348.4969 337.8875 348.21564Q338.16876 347.9344 338.3719 347.575Q338.575 347.21564 338.7 346.79376Q338.8875 346.21564 338.8875 345.6844Q338.8875 344.84064 338.45 344.3719Q338.02814 343.90314 337.3875 343.90314Q336.8875 343.90314 336.48126 344.15314Q336.075 344.3875 335.73126 344.84064Q335.40314 345.29376 335.2469 345.90314Q335.09064 346.5125 335.09064 346.98126ZM345.09064 348.325Q343.98126 349.59064 342.8094 349.59064Q342.09064 349.59064 341.6375 349.1844Q341.2 348.7625 341.2 348.16876Q341.2 347.77814 341.40314 346.825L342.15314 343.23126L343.21564 343.23126L342.3719 347.2Q342.27814 347.7 342.27814 347.98126Q342.27814 348.325 342.48126 348.52814Q342.7 348.71564 343.1219 348.71564Q343.5594 348.71564 343.98126 348.5125Q344.41876 348.29376 344.71564 347.91876Q345.02814 347.54376 345.21564 347.04376Q345.35626 346.73126 345.5125 345.91876L346.075 343.23126L347.1375 343.23126L345.84064 349.45L344.85626 349.45L345.09064 348.325ZM347.85626 349.45L349.15314 343.23126L350.09064 343.23126L349.825 344.4969Q350.3094 343.77814 350.7625 343.4344Q351.23126 343.09064 351.7 343.09064Q352.02814 343.09064 352.48126 343.3094L352.04376 344.29376Q351.77814 344.10626 351.45 344.10626Q350.8875 344.10626 350.29376 344.73126Q349.71564 345.34064 349.3875 346.95L348.85626 349.45L347.85626 349.45ZM356.1375 347.1844L357.2 347.29376Q356.8094 348.46564 356.075 349.02814Q355.34064 349.59064 354.40314 349.59064Q353.3875 349.59064 352.7469 348.9344Q352.1219 348.27814 352.1219 347.10626Q352.1219 346.075 352.52814 345.09064Q352.9344 344.10626 353.6844 343.60626Q354.4344 343.09064 355.40314 343.09064Q356.40314 343.09064 356.98126 343.65314Q357.575 344.21564 357.575 345.15314L356.54376 345.21564Q356.52814 344.6219 356.1844 344.29376Q355.85626 343.96564 355.3094 343.96564Q354.66876 343.96564 354.2 344.3719Q353.73126 344.7625 353.46564 345.59064Q353.2 346.41876 353.2 347.16876Q353.2 347.96564 353.54376 348.3719Q353.90314 348.7625 354.41876 348.7625Q354.9344 348.7625 355.40314 348.3719Q355.8719 347.98126 356.1375 347.1844ZM362.41876 347.34064L363.45 347.4344Q363.23126 348.2 362.41876 348.90314Q361.6219 349.59064 360.52814 349.59064Q359.825 349.59064 359.2469 349.27814Q358.66876 348.95 358.3719 348.34064Q358.075 347.73126 358.075 346.95Q358.075 345.9344 358.54376 344.98126Q359.0125 344.0125 359.7625 343.5594Q360.5125 343.09064 361.3875 343.09064Q362.4969 343.09064 363.15314 343.77814Q363.825 344.46564 363.825 345.66876Q363.825 346.1219 363.7469 346.60626L359.16876 346.60626Q359.1375 346.77814 359.1375 346.9344Q359.1375 347.8094 359.54376 348.2625Q359.95 348.71564 360.52814 348.71564Q361.075 348.71564 361.59064 348.3719Q362.1219 348.0125 362.41876 347.34064ZM359.34064 345.79376L362.825 345.79376Q362.84064 345.6219 362.84064 345.5594Q362.84064 344.7625 362.4344 344.34064Q362.04376 343.91876 361.41876 343.91876Q360.73126 343.91876 360.16876 344.3875Q359.60626 344.85626 359.34064 345.79376ZM366.1844 344.4344L366.4344 343.23126L367.6375 343.23126L367.3875 344.4344L366.1844 344.4344ZM365.1375 349.45L365.3875 348.2469L366.59064 348.2469L366.325 349.45L365.1375 349.45ZM373.325 348.59064L373.15314 349.45Q372.77814 349.5594 372.41876 349.5594Q371.77814 349.5594 371.40314 349.2469Q371.1219 349.0125 371.1219 348.60626Q371.1219 348.40314 371.27814 347.66876L372.02814 344.04376L371.2 344.04376L371.3719 343.23126L372.2 343.23126L372.52814 341.7L373.73126 340.96564L373.2625 343.23126L374.3094 343.23126L374.1375 344.04376L373.09064 344.04376L372.3719 347.48126Q372.23126 348.1375 372.23126 348.27814Q372.23126 348.46564 372.34064 348.5594Q372.45 348.65314 372.7 348.65314Q373.0594 348.65314 373.325 348.59064ZM375.02814 349.45L374.3875 343.23126L375.40314 343.23126L375.6844 346.02814L375.79376 347.59064Q375.8094 347.7625 375.825 348.29376Q376.0125 347.7 376.1219 347.3875Q376.2469 347.0594 376.52814 346.46564L377.9969 343.23126L379.15314 343.23126L379.35626 346.34064Q379.40314 347.04376 379.41876 348.23126Q379.71564 347.45 380.3719 346.04376L381.71564 343.23126L382.77814 343.23126L379.73126 349.45L378.6375 349.45L378.40314 345.79376Q378.3719 345.46564 378.35626 344.48126Q378.1219 345.10626 377.79376 345.825L376.15314 349.45L375.02814 349.45ZM383.35626 342.0594L383.60626 340.85626L384.66876 340.85626L384.40314 342.0594L383.35626 342.0594ZM381.8094 349.45L383.10626 343.23126L384.16876 343.23126L382.8719 349.45L381.8094 349.45ZM387.325 348.59064L387.15314 349.45Q386.77814 349.5594 386.41876 349.5594Q385.77814 349.5594 385.40314 349.2469Q385.1219 349.0125 385.1219 348.60626Q385.1219 348.40314 385.27814 347.66876L386.02814 344.04376L385.2 344.04376L385.3719 343.23126L386.2 343.23126L386.52814 341.7L387.73126 340.96564L387.2625 343.23126L388.3094 343.23126L388.1375 344.04376L387.09064 344.04376L386.3719 347.48126Q386.23126 348.1375 386.23126 348.27814Q386.23126 348.46564 386.34064 348.5594Q386.45 348.65314 386.7 348.65314Q387.0594 348.65314 387.325 348.59064ZM390.325 348.59064L390.15314 349.45Q389.77814 349.5594 389.41876 349.5594Q388.77814 349.5594 388.40314 349.2469Q388.1219 349.0125 388.1219 348.60626Q388.1219 348.40314 388.27814 347.66876L389.02814 344.04376L388.2 344.04376L388.3719 343.23126L389.2 343.23126L389.52814 341.7L390.73126 340.96564L390.2625 343.23126L391.3094 343.23126L391.1375 344.04376L390.09064 344.04376L389.3719 347.48126Q389.23126 348.1375 389.23126 348.27814Q389.23126 348.46564 389.34064 348.5594Q389.45 348.65314 389.7 348.65314Q390.0594 348.65314 390.325 348.59064ZM395.41876 347.34064L396.45 347.4344Q396.23126 348.2 395.41876 348.90314Q394.6219 349.59064 393.52814 349.59064Q392.825 349.59064 392.2469 349.27814Q391.66876 348.95 391.3719 348.34064Q391.075 347.73126 391.075 346.95Q391.075 345.9344 391.54376 344.98126Q392.0125 344.0125 392.7625 343.5594Q393.5125 343.09064 394.3875 343.09064Q395.4969 343.09064 396.15314 343.77814Q396.825 344.46564 396.825 345.66876Q396.825 346.1219 396.7469 346.60626L392.16876 346.60626Q392.1375 346.77814 392.1375 346.9344Q392.1375 347.8094 392.54376 348.2625Q392.95 348.71564 393.52814 348.71564Q394.075 348.71564 394.59064 348.3719Q395.1219 348.0125 395.41876 347.34064ZM392.34064 345.79376L395.825 345.79376Q395.84064 345.6219 395.84064 345.5594Q395.84064 344.7625 395.4344 344.34064Q395.04376 343.91876 394.41876 343.91876Q393.73126 343.91876 393.16876 344.3875Q392.60626 344.85626 392.34064 345.79376ZM397.85626 349.45L399.15314 343.23126L400.09064 343.23126L399.825 344.4969Q400.3094 343.77814 400.7625 343.4344Q401.23126 343.09064 401.7 343.09064Q402.02814 343.09064 402.48126 343.3094L402.04376 344.29376Q401.77814 344.10626 401.45 344.10626Q400.8875 344.10626 400.29376 344.73126Q399.71564 345.34064 399.3875 346.95L398.85626 349.45L397.85626 349.45ZM402.1375 349.45L402.3875 348.2469L403.59064 348.2469L403.34064 349.45L402.1375 349.45ZM409.1375 347.1844L410.2 347.29376Q409.8094 348.46564 409.075 349.02814Q408.34064 349.59064 407.40314 349.59064Q406.3875 349.59064 405.7469 348.9344Q405.1219 348.27814 405.1219 347.10626Q405.1219 346.075 405.52814 345.09064Q405.9344 344.10626 406.6844 343.60626Q407.4344 343.09064 408.40314 343.09064Q409.40314 343.09064 409.98126 343.65314Q410.575 344.21564 410.575 345.15314L409.54376 345.21564Q409.52814 344.6219 409.1844 344.29376Q408.85626 343.96564 408.3094 343.96564Q407.66876 343.96564 407.2 344.3719Q406.73126 344.7625 406.46564 345.59064Q406.2 346.41876 406.2 347.16876Q406.2 347.96564 406.54376 348.3719Q406.90314 348.7625 407.41876 348.7625Q407.9344 348.7625 408.40314 348.3719Q408.8719 347.98126 409.1375 347.1844ZM411.04376 347.09064Q411.04376 345.2625 412.10626 344.075Q412.9969 343.09064 414.4344 343.09064Q415.5594 343.09064 416.2469 343.79376Q416.9344 344.4969 416.9344 345.6844Q416.9344 346.7625 416.4969 347.6844Q416.0594 348.60626 415.2625 349.10626Q414.46564 349.59064 413.575 349.59064Q412.85626 349.59064 412.2625 349.27814Q411.66876 348.96564 411.35626 348.40314Q411.04376 347.825 411.04376 347.09064ZM412.09064 346.98126Q412.09064 347.85626 412.5125 348.3094Q412.9344 348.7625 413.59064 348.7625Q413.9344 348.7625 414.2625 348.6375Q414.60626 348.4969 414.8875 348.21564Q415.16876 347.9344 415.3719 347.575Q415.575 347.21564 415.7 346.79376Q415.8875 346.21564 415.8875 345.6844Q415.8875 344.84064 415.45 344.3719Q415.02814 343.90314 414.3875 343.90314Q413.8875 343.90314 413.48126 344.15314Q413.075 344.3875 412.73126 344.84064Q412.40314 345.29376 412.2469 345.90314Q412.09064 346.5125 412.09064 346.98126ZM417.84064 349.45L419.1375 343.23126L420.2 343.23126L419.98126 344.2469Q420.575 343.59064 421.04376 343.34064Q421.5125 343.09064 422.0594 343.09064Q422.6375 343.09064 423.02814 343.40314Q423.41876 343.7 423.54376 344.2469Q424.0125 343.66876 424.52814 343.3875Q425.0594 343.09064 425.6375 343.09064Q426.41876 343.09064 426.8094 343.46564Q427.2 343.825 427.2 344.4969Q427.2 344.77814 427.0594 345.4344L426.23126 349.45L425.16876 349.45L426.02814 345.34064Q426.1375 344.825 426.1375 344.6219Q426.1375 344.3094 425.9344 344.1375Q425.7469 343.96564 425.40314 343.96564Q424.91876 343.96564 424.41876 344.2469Q423.9344 344.52814 423.65314 344.9969Q423.3875 345.46564 423.1844 346.4344L422.5594 349.45L421.4969 349.45L422.3719 345.2469Q422.46564 344.825 422.46564 344.6375Q422.46564 344.34064 422.27814 344.15314Q422.09064 343.96564 421.77814 343.96564Q421.325 343.96564 420.825 344.2469Q420.34064 344.52814 420.02814 345.04376Q419.71564 345.5594 419.5125 346.5125L418.90314 349.45L417.84064 349.45ZM427.84064 349.59064L432.46564 340.71564L433.3719 340.71564L428.7625 349.59064L427.84064 349.59064ZM438.2469 348.4969Q437.8719 348.9344 437.40314 349.2Q436.9344 349.46564 436.45 349.46564Q435.9344 349.46564 435.4344 349.16876Q434.95 348.85626 434.6375 348.23126Q434.34064 347.59064 434.34064 346.84064Q434.34064 345.90314 434.8094 344.96564Q435.29376 344.02814 435.9969 343.5594Q436.7 343.09064 437.3719 343.09064Q437.8875 343.09064 438.34064 343.3719Q438.8094 343.6375 439.1375 344.16876L439.34064 343.2625L440.3875 343.2625L439.54376 347.2Q439.3719 348.0125 439.3719 348.10626Q439.3719 348.2625 439.48126 348.3875Q439.60626 348.4969 439.77814 348.4969Q440.09064 348.4969 440.59064 348.1375Q441.2625 347.66876 441.65314 346.8875Q442.04376 346.09064 442.04376 345.2469Q442.04376 344.27814 441.54376 343.4344Q441.04376 342.575 440.04376 342.075Q439.0594 341.5594 437.85626 341.5594Q436.48126 341.5594 435.34064 342.2Q434.21564 342.84064 433.59064 344.04376Q432.96564 345.23126 432.96564 346.60626Q432.96564 348.04376 433.59064 349.09064Q434.21564 350.1219 435.3875 350.60626Q436.575 351.10626 438.0125 351.10626Q439.54376 351.10626 440.575 350.59064Q441.6219 350.075 442.1375 349.34064L443.2 349.34064Q442.90314 349.95 442.16876 350.59064Q441.45 351.23126 440.45 351.60626Q439.45 351.98126 438.02814 351.98126Q436.73126 351.98126 435.6219 351.6375Q434.52814 351.3094 433.7469 350.6375Q432.98126 349.96564 432.59064 349.09064Q432.10626 347.98126 432.10626 346.7Q432.10626 345.27814 432.6844 343.98126Q433.40314 342.3875 434.71564 341.54376Q436.02814 340.7 437.90314 340.7Q439.35626 340.7 440.5125 341.29376Q441.66876 341.8875 442.34064 343.075Q442.91876 344.075 442.91876 345.27814Q442.91876 346.96564 441.71564 348.29376Q440.65314 349.48126 439.3875 349.48126Q438.98126 349.48126 438.73126 349.35626Q438.48126 349.23126 438.3719 348.9969Q438.29376 348.85626 438.2469 348.4969ZM435.41876 346.90314Q435.41876 347.71564 435.79376 348.16876Q436.1844 348.60626 436.66876 348.60626Q436.9969 348.60626 437.35626 348.40314Q437.73126 348.2 438.0594 347.825Q438.3875 347.4344 438.59064 346.84064Q438.8094 346.2469 438.8094 345.65314Q438.8094 344.85626 438.40314 344.41876Q438.0125 343.96564 437.45 343.96564Q437.075 343.96564 436.7469 344.16876Q436.41876 344.35626 436.10626 344.77814Q435.79376 345.2 435.60626 345.8094Q435.41876 346.40314 435.41876 346.90314ZM443.7625 349.45L445.5594 340.85626L446.6219 340.85626L444.825 349.45L443.7625 349.45ZM446.7625 349.45L448.5594 340.85626L449.6219 340.85626L447.825 349.45L446.7625 349.45ZM450.04376 347.09064Q450.04376 345.2625 451.10626 344.075Q451.9969 343.09064 453.4344 343.09064Q454.5594 343.09064 455.2469 343.79376Q455.9344 344.4969 455.9344 345.6844Q455.9344 346.7625 455.4969 347.6844Q455.0594 348.60626 454.2625 349.10626Q453.46564 349.59064 452.575 349.59064Q451.85626 349.59064 451.2625 349.27814Q450.66876 348.96564 450.35626 348.40314Q450.04376 347.825 450.04376 347.09064ZM451.09064 346.98126Q451.09064 347.85626 451.5125 348.3094Q451.9344 348.7625 452.59064 348.7625Q452.9344 348.7625 453.2625 348.6375Q453.60626 348.4969 453.8875 348.21564Q454.16876 347.9344 454.3719 347.575Q454.575 347.21564 454.7 346.79376Q454.8875 346.21564 454.8875 345.6844Q454.8875 344.84064 454.45 344.3719Q454.02814 343.90314 453.3875 343.90314Q452.8875 343.90314 452.48126 344.15314Q452.075 344.3875 451.73126 344.84064Q451.40314 345.29376 451.2469 345.90314Q451.09064 346.5125 451.09064 346.98126ZM456.45 351.85626L456.5125 350.85626Q456.84064 350.95 457.15314 350.95Q457.48126 350.95 457.66876 350.8094Q457.9344 350.60626 458.23126 350.075L458.575 349.46564L457.54376 343.23126L458.59064 343.23126L459.0594 346.3719Q459.2 347.3094 459.29376 348.23126L462.075 343.23126L463.1844 343.23126L459.21564 350.27814Q458.6375 351.3094 458.1844 351.6375Q457.7469 351.98126 457.16876 351.98126Q456.8094 351.98126 456.45 351.85626ZM467.04376 348.54376Q466.1375 349.59064 465.15314 349.59064Q464.2625 349.59064 463.66876 348.9344Q463.09064 348.27814 463.09064 347.04376Q463.09064 345.90314 463.54376 344.96564Q464.0125 344.02814 464.71564 343.5594Q465.41876 343.09064 466.1219 343.09064Q467.27814 343.09064 467.8719 344.2L468.575 340.85626L469.6219 340.85626L467.84064 349.45L466.85626 349.45L467.04376 348.54376ZM464.1375 346.84064Q464.1375 347.4969 464.2625 347.8719Q464.40314 348.2469 464.7 348.4969Q465.0125 348.7469 465.45 348.7469Q466.16876 348.7469 466.7625 347.9969Q467.54376 346.9969 467.54376 345.52814Q467.54376 344.79376 467.15314 344.3875Q466.7625 343.96564 466.1844 343.96564Q465.8094 343.96564 465.48126 344.1375Q465.16876 344.29376 464.85626 344.7Q464.5594 345.10626 464.34064 345.7469Q464.1375 346.3719 464.1375 346.84064ZM474.04376 348.54376Q473.1375 349.59064 472.15314 349.59064Q471.2625 349.59064 470.66876 348.9344Q470.09064 348.27814 470.09064 347.04376Q470.09064 345.90314 470.54376 344.96564Q471.0125 344.02814 471.71564 343.5594Q472.41876 343.09064 473.1219 343.09064Q474.27814 343.09064 474.8719 344.2L475.575 340.85626L476.6219 340.85626L474.84064 349.45L473.85626 349.45L474.04376 348.54376ZM471.1375 346.84064Q471.1375 347.4969 471.2625 347.8719Q471.40314 348.2469 471.7 348.4969Q472.0125 348.7469 472.45 348.7469Q473.16876 348.7469 473.7625 347.9969Q474.54376 346.9969 474.54376 345.52814Q474.54376 344.79376 474.15314 344.3875Q473.7625 343.96564 473.1844 343.96564Q472.8094 343.96564 472.48126 344.1375Q472.16876 344.29376 471.85626 344.7Q471.5594 345.10626 471.34064 345.7469Q471.1375 346.3719 471.1375 346.84064ZM481.04376 348.66876Q480.4969 349.15314 479.98126 349.3719Q479.48126 349.59064 478.8875 349.59064Q478.02814 349.59064 477.4969 349.09064Q476.98126 348.575 476.98126 347.77814Q476.98126 347.2625 477.21564 346.8719Q477.45 346.46564 477.84064 346.23126Q478.23126 345.98126 478.8094 345.8719Q479.16876 345.79376 480.16876 345.7625Q481.16876 345.71564 481.59064 345.54376Q481.71564 345.10626 481.71564 344.825Q481.71564 344.45 481.45 344.2469Q481.075 343.95 480.3719 343.95Q479.7 343.95 479.27814 344.2469Q478.85626 344.54376 478.65314 345.09064L477.59064 344.9969Q477.91876 344.075 478.6219 343.59064Q479.34064 343.09064 480.41876 343.09064Q481.575 343.09064 482.2469 343.6375Q482.7625 344.04376 482.7625 344.7Q482.7625 345.2 482.6219 345.85626L482.27814 347.40314Q482.10626 348.1375 482.10626 348.60626Q482.10626 348.90314 482.2469 349.45L481.16876 349.45Q481.075 349.1375 481.04376 348.66876ZM481.4344 346.29376Q481.21564 346.3875 480.95 346.4344Q480.7 346.48126 480.10626 346.52814Q479.1844 346.60626 478.79376 346.7469Q478.41876 346.8719 478.21564 347.15314Q478.02814 347.41876 478.02814 347.7469Q478.02814 348.2 478.34064 348.48126Q478.65314 348.7625 479.21564 348.7625Q479.7469 348.7625 480.23126 348.4969Q480.71564 348.21564 480.9969 347.71564Q481.27814 347.21564 481.4344 346.29376ZM485.41876 349.45L484.40314 343.23126L485.4344 343.23126L485.96564 346.65314Q486.0594 347.21564 486.1844 348.48126Q486.48126 347.825 486.96564 346.96564L489.04376 343.23126L490.15314 343.23126L486.59064 349.45L485.41876 349.45ZM491.35626 342.0594L491.60626 340.85626L492.66876 340.85626L492.40314 342.0594L491.35626 342.0594ZM489.8094 349.45L491.10626 343.23126L492.16876 343.23126L490.8719 349.45L489.8094 349.45ZM492.95 347.325L494.0125 347.2625Q494.0125 347.71564 494.15314 348.04376Q494.29376 348.35626 494.66876 348.5594Q495.04376 348.7625 495.54376 348.7625Q496.2469 348.7625 496.59064 348.48126Q496.95 348.2 496.95 347.825Q496.95 347.54376 496.7469 347.3094Q496.52814 347.0594 495.6844 346.7Q494.84064 346.34064 494.60626 346.1844Q494.21564 345.95 494.0125 345.6219Q493.825 345.29376 493.825 344.8719Q493.825 344.1375 494.40314 343.6219Q494.9969 343.09064 496.04376 343.09064Q497.21564 343.09064 497.825 343.6375Q498.45 344.16876 498.46564 345.0594L497.4344 345.1219Q497.40314 344.5594 497.02814 344.23126Q496.65314 343.90314 495.96564 343.90314Q495.41876 343.90314 495.10626 344.15314Q494.8094 344.40314 494.8094 344.7Q494.8094 344.9969 495.075 345.21564Q495.2469 345.3719 495.98126 345.6844Q497.2 346.21564 497.5125 346.5125Q498.02814 347.0125 498.02814 347.7Q498.02814 348.16876 497.73126 348.6219Q497.45 349.0594 496.8719 349.325Q496.29376 349.59064 495.4969 349.59064Q494.41876 349.59064 493.66876 349.0594Q492.90314 348.52814 492.95 347.325ZM503.41876 349.45L502.40314 343.23126L503.4344 343.23126L503.96564 346.65314Q504.0594 347.21564 504.1844 348.48126Q504.48126 347.825 504.96564 346.96564L507.04376 343.23126L508.15314 343.23126L504.59064 349.45L503.41876 349.45ZM509.35626 342.0594L509.60626 340.85626L510.66876 340.85626L510.40314 342.0594L509.35626 342.0594ZM507.8094 349.45L509.10626 343.23126L510.16876 343.23126L508.8719 349.45L507.8094 349.45ZM515.04376 348.66876Q514.4969 349.15314 513.98126 349.3719Q513.48126 349.59064 512.8875 349.59064Q512.02814 349.59064 511.4969 349.09064Q510.98126 348.575 510.98126 347.77814Q510.98126 347.2625 511.21564 346.8719Q511.45 346.46564 511.84064 346.23126Q512.23126 345.98126 512.8094 345.8719Q513.16876 345.79376 514.16876 345.7625Q515.16876 345.71564 515.59064 345.54376Q515.71564 345.10626 515.71564 344.825Q515.71564 344.45 515.45 344.2469Q515.075 343.95 514.3719 343.95Q513.7 343.95 513.27814 344.2469Q512.85626 344.54376 512.65314 345.09064L511.59064 344.9969Q511.91876 344.075 512.6219 343.59064Q513.34064 343.09064 514.41876 343.09064Q515.575 343.09064 516.2469 343.6375Q516.7625 344.04376 516.7625 344.7Q516.7625 345.2 516.6219 345.85626L516.27814 347.40314Q516.10626 348.1375 516.10626 348.60626Q516.10626 348.90314 516.2469 349.45L515.16876 349.45Q515.075 349.1375 515.04376 348.66876ZM515.4344 346.29376Q515.21564 346.3875 514.95 346.4344Q514.7 346.48126 514.10626 346.52814Q513.1844 346.60626 512.79376 346.7469Q512.41876 346.8719 512.21564 347.15314Q512.02814 347.41876 512.02814 347.7469Q512.02814 348.2 512.34064 348.48126Q512.65314 348.7625 513.21564 348.7625Q513.7469 348.7625 514.23126 348.4969Q514.71564 348.21564 514.9969 347.71564Q515.27814 347.21564 515.4344 346.29376ZM525.04376 348.66876Q524.4969 349.15314 523.98126 349.3719Q523.48126 349.59064 522.8875 349.59064Q522.02814 349.59064 521.4969 349.09064Q520.98126 348.575 520.98126 347.77814Q520.98126 347.2625 521.21564 346.8719Q521.45 346.46564 521.84064 346.23126Q522.23126 345.98126 522.8094 345.8719Q523.16876 345.79376 524.16876 345.7625Q525.16876 345.71564 525.59064 345.54376Q525.71564 345.10626 525.71564 344.825Q525.71564 344.45 525.45 344.2469Q525.075 343.95 524.3719 343.95Q523.7 343.95 523.27814 344.2469Q522.85626 344.54376 522.65314 345.09064L521.59064 344.9969Q521.91876 344.075 522.6219 343.59064Q523.34064 343.09064 524.41876 343.09064Q525.575 343.09064 526.2469 343.6375Q526.7625 344.04376 526.7625 344.7Q526.7625 345.2 526.6219 345.85626L526.27814 347.40314Q526.10626 348.1375 526.10626 348.60626Q526.10626 348.90314 526.2469 349.45L525.16876 349.45Q525.075 349.1375 525.04376 348.66876ZM525.4344 346.29376Q525.21564 346.3875 524.95 346.4344Q524.7 346.48126 524.10626 346.52814Q523.1844 346.60626 522.79376 346.7469Q522.41876 346.8719 522.21564 347.15314Q522.02814 347.41876 522.02814 347.7469Q522.02814 348.2 522.34064 348.48126Q522.65314 348.7625 523.21564 348.7625Q523.7469 348.7625 524.23126 348.4969Q524.71564 348.21564 524.9969 347.71564Q525.27814 347.21564 525.4344 346.29376ZM527.85626 349.45L529.15314 343.23126L530.09064 343.23126L529.825 344.4969Q530.3094 343.77814 530.7625 343.4344Q531.23126 343.09064 531.7 343.09064Q532.02814 343.09064 532.48126 343.3094L532.04376 344.29376Q531.77814 344.10626 531.45 344.10626Q530.8875 344.10626 530.29376 344.73126Q529.71564 345.34064 529.3875 346.95L528.85626 349.45L527.85626 349.45ZM536.1375 347.1844L537.2 347.29376Q536.8094 348.46564 536.075 349.02814Q535.34064 349.59064 534.40314 349.59064Q533.3875 349.59064 532.7469 348.9344Q532.1219 348.27814 532.1219 347.10626Q532.1219 346.075 532.52814 345.09064Q532.9344 344.10626 533.6844 343.60626Q534.4344 343.09064 535.40314 343.09064Q536.40314 343.09064 536.98126 343.65314Q537.575 344.21564 537.575 345.15314L536.54376 345.21564Q536.52814 344.6219 536.1844 344.29376Q535.85626 343.96564 535.3094 343.96564Q534.66876 343.96564 534.2 344.3719Q533.73126 344.7625 533.46564 345.59064Q533.2 346.41876 533.2 347.16876Q533.2 347.96564 533.54376 348.3719Q533.90314 348.7625 534.41876 348.7625Q534.9344 348.7625 535.40314 348.3719Q535.8719 347.98126 536.1375 347.1844ZM537.85626 349.45L539.6375 340.85626L540.7 340.85626L540.0125 344.15314Q540.60626 343.59064 541.10626 343.34064Q541.6219 343.09064 542.16876 343.09064Q542.9344 343.09064 543.35626 343.4969Q543.79376 343.90314 543.79376 344.575Q543.79376 344.90314 543.60626 345.77814L542.84064 349.45L541.77814 349.45L542.575 345.6844Q542.7469 344.85626 542.7469 344.65314Q542.7469 344.34064 542.52814 344.15314Q542.325 343.96564 541.91876 343.96564Q541.34064 343.96564 540.825 344.2625Q540.3094 344.5594 540.0125 345.09064Q539.71564 345.60626 539.46564 346.77814L538.90314 349.45L537.85626 349.45ZM546.35626 342.0594L546.60626 340.85626L547.66876 340.85626L547.40314 342.0594L546.35626 342.0594ZM544.8094 349.45L546.10626 343.23126L547.16876 343.23126L545.8719 349.45L544.8094 349.45ZM549.41876 349.45L548.40314 343.23126L549.4344 343.23126L549.96564 346.65314Q550.0594 347.21564 550.1844 348.48126Q550.48126 347.825 550.96564 346.96564L553.04376 343.23126L554.15314 343.23126L550.59064 349.45L549.41876 349.45ZM558.41876 347.34064L559.45 347.4344Q559.23126 348.2 558.41876 348.90314Q557.6219 349.59064 556.52814 349.59064Q555.825 349.59064 555.2469 349.27814Q554.66876 348.95 554.3719 348.34064Q554.075 347.73126 554.075 346.95Q554.075 345.9344 554.54376 344.98126Q555.0125 344.0125 555.7625 343.5594Q556.5125 343.09064 557.3875 343.09064Q558.4969 343.09064 559.15314 343.77814Q559.825 344.46564 559.825 345.66876Q559.825 346.1219 559.7469 346.60626L555.16876 346.60626Q555.1375 346.77814 555.1375 346.9344Q555.1375 347.8094 555.54376 348.2625Q555.95 348.71564 556.52814 348.71564Q557.075 348.71564 557.59064 348.3719Q558.1219 348.0125 558.41876 347.34064ZM555.34064 345.79376L558.825 345.79376Q558.84064 345.6219 558.84064 345.5594Q558.84064 344.7625 558.4344 344.34064Q558.04376 343.91876 557.41876 343.91876Q556.73126 343.91876 556.16876 344.3875Q555.60626 344.85626 555.34064 345.79376ZM561.1375 349.45L561.3875 348.2469L562.59064 348.2469L562.34064 349.45L561.1375 349.45ZM564.04376 347.09064Q564.04376 345.2625 565.10626 344.075Q565.9969 343.09064 567.4344 343.09064Q568.5594 343.09064 569.2469 343.79376Q569.9344 344.4969 569.9344 345.6844Q569.9344 346.7625 569.4969 347.6844Q569.0594 348.60626 568.2625 349.10626Q567.46564 349.59064 566.575 349.59064Q565.85626 349.59064 565.2625 349.27814Q564.66876 348.96564 564.35626 348.40314Q564.04376 347.825 564.04376 347.09064ZM565.09064 346.98126Q565.09064 347.85626 565.5125 348.3094Q565.9344 348.7625 566.59064 348.7625Q566.9344 348.7625 567.2625 348.6375Q567.60626 348.4969 567.8875 348.21564Q568.16876 347.9344 568.3719 347.575Q568.575 347.21564 568.7 346.79376Q568.8875 346.21564 568.8875 345.6844Q568.8875 344.84064 568.45 344.3719Q568.02814 343.90314 567.3875 343.90314Q566.8875 343.90314 566.48126 344.15314Q566.075 344.3875 565.73126 344.84064Q565.40314 345.29376 565.2469 345.90314Q565.09064 346.5125 565.09064 346.98126ZM570.85626 349.45L572.15314 343.23126L573.09064 343.23126L572.825 344.4969Q573.3094 343.77814 573.7625 343.4344Q574.23126 343.09064 574.7 343.09064Q575.02814 343.09064 575.48126 343.3094L575.04376 344.29376Q574.77814 344.10626 574.45 344.10626Q573.8875 344.10626 573.29376 344.73126Q572.71564 345.34064 572.3875 346.95L571.85626 349.45L570.85626 349.45ZM574.79376 350.0125L575.85626 350.10626Q575.85626 350.48126 575.95 350.65314Q576.04376 350.84064 576.2625 350.9344Q576.5594 351.075 577.0125 351.075Q577.96564 351.075 578.3875 350.575Q578.66876 350.23126 578.90314 349.1219L579.0125 348.60626Q578.1844 349.45 577.2469 349.45Q576.3094 349.45 575.66876 348.7625Q575.04376 348.0594 575.04376 346.79376Q575.04376 345.7469 575.54376 344.8719Q576.04376 343.98126 576.73126 343.54376Q577.41876 343.09064 578.15314 343.09064Q579.3719 343.09064 580.04376 344.2469L580.2469 343.23126L581.23126 343.23126L579.96564 349.23126Q579.7625 350.23126 579.41876 350.77814Q579.09064 351.325 578.4969 351.6219Q577.90314 351.9344 577.1219 351.9344Q576.3719 351.9344 575.825 351.7469Q575.29376 351.5594 575.02814 351.1844Q574.7625 350.8094 574.7625 350.325Q574.7625 350.1844 574.79376 350.0125ZM576.1219 346.7Q576.1219 347.34064 576.23126 347.65314Q576.41876 348.10626 576.73126 348.34064Q577.0594 348.575 577.46564 348.575Q577.98126 348.575 578.4969 348.21564Q579.0125 347.85626 579.325 347.09064Q579.65314 346.3094 579.65314 345.6219Q579.65314 344.85626 579.23126 344.40314Q578.8094 343.9344 578.1844 343.9344Q577.79376 343.9344 577.41876 344.15314Q577.0594 344.35626 576.7469 344.77814Q576.4344 345.2 576.27814 345.79376Q576.1219 346.3875 576.1219 346.7Z" fill-rule="nonzero"/><path fill="#000000" d="M33.05 300.21564Q33.05 298.6844 33.3625 297.7625Q33.675 296.825 34.284374 296.325Q34.909374 295.825 35.846874 295.825Q36.534374 295.825 37.05 296.10626Q37.58125 296.3875 37.925 296.91876Q38.26875 297.4344 38.45625 298.1844Q38.64375 298.9344 38.64375 300.21564Q38.64375 301.73126 38.33125 302.65314Q38.034374 303.575 37.409374 304.09064Q36.8 304.59064 35.846874 304.59064Q34.6125 304.59064 33.89375 303.7Q33.05 302.6375 33.05 300.21564ZM34.128124 300.21564Q34.128124 302.325 34.628124 303.02814Q35.128124 303.73126 35.846874 303.73126Q36.58125 303.73126 37.065624 303.02814Q37.565624 302.325 37.565624 300.21564Q37.565624 298.09064 37.065624 297.40314Q36.58125 296.7 35.83125 296.7Q35.1125 296.7 34.675 297.3094Q34.128124 298.09064 34.128124 300.21564Z" fill-rule="nonzero"/><path fill="#000000" d="M23.01875 262.01666L21.971874 262.01666L21.971874 255.29791Q21.58125 255.65729 20.95625 256.0323Q20.346874 256.39166 19.8625 256.56354L19.8625 255.54791Q20.7375 255.12604 21.39375 254.54791Q22.065624 253.95416 22.346874 253.39166L23.01875 253.39166L23.01875 262.01666ZM26.05 257.7823Q26.05 256.25104 26.3625 255.32916Q26.675 254.39166 27.284374 253.89166Q27.909374 253.39166 28.846874 253.39166Q29.534374 253.39166 30.05 253.67291Q30.58125 253.95416 30.925 254.48541Q31.26875 255.00104 31.45625 255.75104Q31.64375 256.50104 31.64375 257.7823Q31.64375 259.2979 31.33125 260.2198Q31.034374 261.14166 30.409374 261.6573Q29.8 262.1573 28.846874 262.1573Q27.6125 262.1573 26.89375 261.26666Q26.05 260.20416 26.05 257.7823ZM27.128124 257.7823Q27.128124 259.89166 27.628124 260.5948Q28.128124 261.2979 28.846874 261.2979Q29.58125 261.2979 30.065624 260.5948Q30.565624 259.89166 30.565624 257.7823Q30.565624 255.65729 30.065624 254.96979Q29.58125 254.26666 28.83125 254.26666Q28.1125 254.26666 27.675 254.87604Q27.128124 255.65729 27.128124 257.7823ZM33.05 257.7823Q33.05 256.25104 33.3625 255.32916Q33.675 254.39166 34.284374 253.89166Q34.909374 253.39166 35.846874 253.39166Q36.534374 253.39166 37.05 253.67291Q37.58125 253.95416 37.925 254.48541Q38.26875 255.00104 38.45625 255.75104Q38.64375 256.50104 38.64375 257.7823Q38.64375 259.2979 38.33125 260.2198Q38.034374 261.14166 37.409374 261.6573Q36.8 262.1573 35.846874 262.1573Q34.6125 262.1573 33.89375 261.26666Q33.05 260.20416 33.05 257.7823ZM34.128124 257.7823Q34.128124 259.89166 34.628124 260.5948Q35.128124 261.2979 35.846874 261.2979Q36.58125 261.2979 37.065624 260.5948Q37.565624 259.89166 37.565624 257.7823Q37.565624 255.65729 37.065624 254.96979Q36.58125 254.26666 35.83125 254.26666Q35.1125 254.26666 34.675 254.87604Q34.128124 255.65729 34.128124 257.7823Z" fill-rule="nonzero"/><path fill="#000000" d="M24.596874 218.5677L24.596874 219.58333L18.909374 219.58333Q18.909374 219.20833 19.034374 218.84895Q19.253124 218.27083 19.721874 217.70833Q20.20625 217.14583 21.1125 216.41145Q22.51875 215.2552 23.003124 214.58333Q23.503124 213.91145 23.503124 213.3177Q23.503124 212.6927 23.05 212.27083Q22.596874 211.83333 21.878124 211.83333Q21.1125 211.83333 20.659374 212.28645Q20.20625 212.73958 20.190624 213.55208L19.1125 213.4427Q19.221874 212.22395 19.940624 211.59895Q20.675 210.95833 21.909374 210.95833Q23.14375 210.95833 23.8625 211.64583Q24.58125 212.33333 24.58125 213.34895Q24.58125 213.86458 24.3625 214.36458Q24.159374 214.84895 23.659374 215.41145Q23.175 215.95833 22.05 216.91145Q21.096874 217.70833 20.815624 218.0052Q20.55 218.28645 20.378124 218.5677L24.596874 218.5677ZM26.05 215.34895Q26.05 213.8177 26.3625 212.89583Q26.675 211.95833 27.284374 211.45833Q27.909374 210.95833 28.846874 210.95833Q29.534374 210.95833 30.05 211.23958Q30.58125 211.52083 30.925 212.05208Q31.26875 212.5677 31.45625 213.3177Q31.64375 214.0677 31.64375 215.34895Q31.64375 216.86458 31.33125 217.78645Q31.034374 218.70833 30.409374 219.22395Q29.8 219.72395 28.846874 219.72395Q27.6125 219.72395 26.89375 218.83333Q26.05 217.77083 26.05 215.34895ZM27.128124 215.34895Q27.128124 217.45833 27.628124 218.16145Q28.128124 218.86458 28.846874 218.86458Q29.58125 218.86458 30.065624 218.16145Q30.565624 217.45833 30.565624 215.34895Q30.565624 213.22395 30.065624 212.53645Q29.58125 211.83333 28.83125 211.83333Q28.1125 211.83333 27.675 212.4427Q27.128124 213.22395 27.128124 215.34895ZM33.05 215.34895Q33.05 213.8177 33.3625 212.89583Q33.675 211.95833 34.284374 211.45833Q34.909374 210.95833 35.846874 210.95833Q36.534374 210.95833 37.05 211.23958Q37.58125 211.52083 37.925 212.05208Q38.26875 212.5677 38.45625 213.3177Q38.64375 214.0677 38.64375 215.34895Q38.64375 216.86458 38.33125 217.78645Q38.034374 218.70833 37.409374 219.22395Q36.8 219.72395 35.846874 219.72395Q34.6125 219.72395 33.89375 218.83333Q33.05 217.77083 33.05 215.34895ZM34.128124 215.34895Q34.128124 217.45833 34.628124 218.16145Q35.128124 218.86458 35.846874 218.86458Q36.58125 218.86458 37.065624 218.16145Q37.565624 217.45833 37.565624 215.34895Q37.565624 213.22395 37.065624 212.53645Q36.58125 211.83333 35.83125 211.83333Q35.1125 211.83333 34.675 212.4427Q34.128124 213.22395 34.128124 215.34895Z" fill-rule="nonzero"/><path fill="#000000" d="M19.05 174.88437L20.1125 174.74374Q20.284374 175.63437 20.721874 176.04062Q21.159374 176.43124 21.784374 176.43124Q22.534374 176.43124 23.05 175.91562Q23.565624 175.4 23.565624 174.63437Q23.565624 173.91562 23.08125 173.44687Q22.6125 172.9625 21.878124 172.9625Q21.58125 172.9625 21.128124 173.0875L21.253124 172.15Q21.3625 172.16562 21.425 172.16562Q22.096874 172.16562 22.628124 171.82187Q23.175 171.4625 23.175 170.72812Q23.175 170.15 22.784374 169.775Q22.39375 169.38437 21.76875 169.38437Q21.159374 169.38437 20.7375 169.775Q20.33125 170.16562 20.221874 170.93124L19.159374 170.74374Q19.346874 169.69687 20.034374 169.11874Q20.721874 168.525 21.7375 168.525Q22.440624 168.525 23.034374 168.8375Q23.628124 169.13437 23.940624 169.65Q24.253124 170.16562 24.253124 170.75937Q24.253124 171.30624 23.95625 171.775Q23.659374 172.22812 23.08125 172.49374Q23.83125 172.66562 24.253124 173.22812Q24.675 173.775 24.675 174.61874Q24.675 175.74374 23.846874 176.525Q23.034374 177.30624 21.784374 177.30624Q20.659374 177.30624 19.909374 176.63437Q19.159374 175.94687 19.05 174.88437ZM26.05 172.91562Q26.05 171.38437 26.3625 170.4625Q26.675 169.525 27.284374 169.025Q27.909374 168.525 28.846874 168.525Q29.534374 168.525 30.05 168.80624Q30.58125 169.0875 30.925 169.61874Q31.26875 170.13437 31.45625 170.88437Q31.64375 171.63437 31.64375 172.91562Q31.64375 174.43124 31.33125 175.35312Q31.034374 176.275 30.409374 176.79062Q29.8 177.29062 28.846874 177.29062Q27.6125 177.29062 26.89375 176.4Q26.05 175.3375 26.05 172.91562ZM27.128124 172.91562Q27.128124 175.025 27.628124 175.72812Q28.128124 176.43124 28.846874 176.43124Q29.58125 176.43124 30.065624 175.72812Q30.565624 175.025 30.565624 172.91562Q30.565624 170.79062 30.065624 170.10312Q29.58125 169.4 28.83125 169.4Q28.1125 169.4 27.675 170.00937Q27.128124 170.79062 27.128124 172.91562ZM33.05 172.91562Q33.05 171.38437 33.3625 170.4625Q33.675 169.525 34.284374 169.025Q34.909374 168.525 35.846874 168.525Q36.534374 168.525 37.05 168.80624Q37.58125 169.0875 37.925 169.61874Q38.26875 170.13437 38.45625 170.88437Q38.64375 171.63437 38.64375 172.91562Q38.64375 174.43124 38.33125 175.35312Q38.034374 176.275 37.409374 176.79062Q36.8 177.29062 35.846874 177.29062Q34.6125 177.29062 33.89375 176.4Q33.05 175.3375 33.05 172.91562ZM34.128124 172.91562Q34.128124 175.025 34.628124 175.72812Q35.128124 176.43124 35.846874 176.43124Q36.58125 176.43124 37.065624 175.72812Q37.565624 175.025 37.565624 172.91562Q37.565624 170.79062 37.065624 170.10312Q36.58125 169.4 35.83125 169.4Q35.1125 169.4 34.675 170.00937Q34.128124 170.79062 34.128124 172.91562Z" fill-rule="nonzero"/><path fill="#000000" d="M22.425 134.71666L22.425 132.65416L18.70625 132.65416L18.70625 131.68541L22.628124 126.12291L23.4875 126.12291L23.4875 131.68541L24.64375 131.68541L24.64375 132.65416L23.4875 132.65416L23.4875 134.71666L22.425 134.71666ZM22.425 131.68541L22.425 127.826035L19.7375 131.68541L22.425 131.68541ZM26.05 130.48228Q26.05 128.95103 26.3625 128.02916Q26.675 127.09166 27.284374 126.59166Q27.909374 126.09166 28.846874 126.09166Q29.534374 126.09166 30.05 126.37291Q30.58125 126.65416 30.925 127.18541Q31.26875 127.701035 31.45625 128.45103Q31.64375 129.20103 31.64375 130.48228Q31.64375 131.99791 31.33125 132.91978Q31.034374 133.84166 30.409374 134.35728Q29.8 134.85728 28.846874 134.85728Q27.6125 134.85728 26.89375 133.96666Q26.05 132.90416 26.05 130.48228ZM27.128124 130.48228Q27.128124 132.59166 27.628124 133.29478Q28.128124 133.99791 28.846874 133.99791Q29.58125 133.99791 30.065624 133.29478Q30.565624 132.59166 30.565624 130.48228Q30.565624 128.35728 30.065624 127.669785Q29.58125 126.96666 28.83125 126.96666Q28.1125 126.96666 27.675 127.576035Q27.128124 128.35728 27.128124 130.48228ZM33.05 130.48228Q33.05 128.95103 33.3625 128.02916Q33.675 127.09166 34.284374 126.59166Q34.909374 126.09166 35.846874 126.09166Q36.534374 126.09166 37.05 126.37291Q37.58125 126.65416 37.925 127.18541Q38.26875 127.701035 38.45625 128.45103Q38.64375 129.20103 38.64375 130.48228Q38.64375 131.99791 38.33125 132.91978Q38.034374 133.84166 37.409374 134.35728Q36.8 134.85728 35.846874 134.85728Q34.6125 134.85728 33.89375 133.96666Q33.05 132.90416 33.05 130.48228ZM34.128124 130.48228Q34.128124 132.59166 34.628124 133.29478Q35.128124 133.99791 35.846874 133.99791Q36.58125 133.99791 37.065624 133.29478Q37.565624 132.59166 37.565624 130.48228Q37.565624 128.35728 37.065624 127.669785Q36.58125 126.96666 35.83125 126.96666Q35.1125 126.96666 34.675 127.576035Q34.128124 128.35728 34.128124 130.48228Z" fill-rule="nonzero"/><path fill="#000000" d="M19.05 90.03333L20.159374 89.93958Q20.284374 90.75208 20.721874 91.15833Q21.175 91.56458 21.815624 91.56458Q22.565624 91.56458 23.096874 90.98646Q23.628124 90.40833 23.628124 89.47083Q23.628124 88.56458 23.1125 88.04896Q22.6125 87.51771 21.784374 87.51771Q21.284374 87.51771 20.8625 87.75208Q20.45625 87.98646 20.221874 88.34583L19.2375 88.22083L20.065624 83.81458L24.346874 83.81458L24.346874 84.81458L20.909374 84.81458L20.45625 87.12708Q21.221874 86.58021 22.065624 86.58021Q23.190624 86.58021 23.95625 87.36146Q24.7375 88.14271 24.7375 89.37708Q24.7375 90.53333 24.065624 91.39271Q23.2375 92.42396 21.815624 92.42396Q20.64375 92.42396 19.89375 91.76771Q19.159374 91.11146 19.05 90.03333ZM26.05 88.04896Q26.05 86.51771 26.3625 85.59583Q26.675 84.65833 27.284374 84.15833Q27.909374 83.65833 28.846874 83.65833Q29.534374 83.65833 30.05 83.93958Q30.58125 84.22083 30.925 84.75208Q31.26875 85.26771 31.45625 86.01771Q31.64375 86.76771 31.64375 88.04896Q31.64375 89.56458 31.33125 90.48646Q31.034374 91.40833 30.409374 91.92396Q29.8 92.42396 28.846874 92.42396Q27.6125 92.42396 26.89375 91.53333Q26.05 90.47083 26.05 88.04896ZM27.128124 88.04896Q27.128124 90.15833 27.628124 90.86146Q28.128124 91.56458 28.846874 91.56458Q29.58125 91.56458 30.065624 90.86146Q30.565624 90.15833 30.565624 88.04896Q30.565624 85.92396 30.065624 85.23646Q29.58125 84.53333 28.83125 84.53333Q28.1125 84.53333 27.675 85.14271Q27.128124 85.92396 27.128124 88.04896ZM33.05 88.04896Q33.05 86.51771 33.3625 85.59583Q33.675 84.65833 34.284374 84.15833Q34.909374 83.65833 35.846874 83.65833Q36.534374 83.65833 37.05 83.93958Q37.58125 84.22083 37.925 84.75208Q38.26875 85.26771 38.45625 86.01771Q38.64375 86.76771 38.64375 88.04896Q38.64375 89.56458 38.33125 90.48646Q38.034374 91.40833 37.409374 91.92396Q36.8 92.42396 35.846874 92.42396Q34.6125 92.42396 33.89375 91.53333Q33.05 90.47083 33.05 88.04896ZM34.128124 88.04896Q34.128124 90.15833 34.628124 90.86146Q35.128124 91.56458 35.846874 91.56458Q36.58125 91.56458 37.065624 90.86146Q37.565624 90.15833 37.565624 88.04896Q37.565624 85.92396 37.065624 85.23646Q36.58125 84.53333 35.83125 84.53333Q35.1125 84.53333 34.675 85.14271Q34.128124 85.92396 34.128124 88.04896Z" fill-rule="nonzero"/><path fill="#000000" d="M100.67558 317.45L103.97246 308.85626L105.19121 308.85626L108.70683 317.45L107.42558 317.45L106.40996 314.84064L102.83183 314.84064L101.87871 317.45L100.67558 317.45ZM103.15996 313.91876L106.06621 313.91876L105.17558 311.54376Q104.75371 310.46564 104.56621 309.7625Q104.39433 310.59064 104.09746 311.40314L103.15996 313.91876ZM108.48808 319.84064L108.48808 311.23126L109.44121 311.23126L109.44121 312.02814Q109.78496 311.5594 110.20683 311.325Q110.64433 311.09064 111.25371 311.09064Q112.05058 311.09064 112.65996 311.4969Q113.26933 311.90314 113.56621 312.65314Q113.87871 313.40314 113.87871 314.29376Q113.87871 315.2469 113.53496 316.0125Q113.20683 316.77814 112.55058 317.1844Q111.89433 317.59064 111.17558 317.59064Q110.64433 317.59064 110.22246 317.3719Q109.80058 317.1375 109.53496 316.8094L109.53496 319.84064L108.48808 319.84064ZM109.44121 314.3719Q109.44121 315.575 109.92558 316.15314Q110.40996 316.71564 111.09746 316.71564Q111.80058 316.71564 112.30058 316.1219Q112.80058 315.52814 112.80058 314.27814Q112.80058 313.09064 112.31621 312.5125Q111.83183 311.91876 111.14433 311.91876Q110.47246 311.91876 109.95683 312.54376Q109.44121 313.16876 109.44121 314.3719ZM115.47246 317.45L115.47246 311.23126L116.42558 311.23126L116.42558 312.16876Q116.78496 311.5125 117.08183 311.3094Q117.39433 311.09064 117.76933 311.09064Q118.30058 311.09064 118.84746 311.41876L118.48808 312.40314Q118.09746 312.16876 117.72246 312.16876Q117.36308 312.16876 117.08183 312.3875Q116.81621 312.59064 116.70683 312.96564Q116.51933 313.52814 116.51933 314.1844L116.51933 317.45L115.47246 317.45ZM119.06621 314.8719L119.06621 313.8094L122.31621 313.8094L122.31621 314.8719L119.06621 314.8719ZM123.19121 313.21564Q123.19121 311.6844 123.50371 310.7625Q123.81621 309.825 124.42558 309.325Q125.05058 308.825 125.98808 308.825Q126.67558 308.825 127.19121 309.10626Q127.72246 309.3875 128.06621 309.91876Q128.40996 310.4344 128.59746 311.1844Q128.78496 311.9344 128.78496 313.21564Q128.78496 314.73126 128.47246 315.65314Q128.17558 316.575 127.55058 317.09064Q126.94121 317.59064 125.98808 317.59064Q124.75371 317.59064 124.03496 316.7Q123.19121 315.6375 123.19121 313.21564ZM124.26933 313.21564Q124.26933 315.325 124.76933 316.02814Q125.26933 316.73126 125.98808 316.73126Q126.72246 316.73126 127.20683 316.02814Q127.70683 315.325 127.70683 313.21564Q127.70683 311.09064 127.20683 310.40314Q126.72246 309.7 125.97246 309.7Q125.25371 309.7 124.81621 310.3094Q124.26933 311.09064 124.26933 313.21564ZM130.25371 309.98126L130.25371 308.96564L135.81621 308.96564L135.81621 309.79376Q135.00371 310.66876 134.19121 312.1219Q133.39433 313.5594 132.95683 315.09064Q132.62871 316.16876 132.55058 317.45L131.45683 317.45Q131.47246 316.4344 131.84746 314.9969Q132.23808 313.5594 132.94121 312.23126Q133.65996 310.90314 134.47246 309.98126L130.25371 309.98126Z" fill-rule="nonzero"/><path fill="#000000" d="M230.03207 315.0125L231.06332 314.8719Q231.09457 315.85626 231.4227 316.21564Q231.75082 316.575 232.34457 316.575Q232.76645 316.575 233.07895 316.3875Q233.39145 316.1844 233.50082 315.85626Q233.62582 315.5125 233.62582 314.77814L233.62582 308.85626L234.75082 308.85626L234.75082 314.71564Q234.75082 315.79376 234.4852 316.3875Q234.2352 316.98126 233.6727 317.29376Q233.1102 317.59064 232.34457 317.59064Q231.21957 317.59064 230.6102 316.95Q230.01645 316.29376 230.03207 315.0125ZM240.56332 317.45L240.56332 316.52814Q239.82895 317.59064 238.57895 317.59064Q238.03207 317.59064 237.5477 317.3875Q237.07895 317.16876 236.84457 316.85626Q236.6102 316.52814 236.51645 316.0594Q236.45395 315.7625 236.45395 315.075L236.45395 311.23126L237.51645 311.23126L237.51645 314.6844Q237.51645 315.4969 237.57895 315.79376Q237.6727 316.2 237.9852 316.45Q238.31332 316.6844 238.7977 316.6844Q239.26645 316.6844 239.6727 316.45Q240.09457 316.2 240.26645 315.77814Q240.45395 315.35626 240.45395 314.5594L240.45395 311.23126L241.50082 311.23126L241.50082 317.45L240.56332 317.45ZM243.45395 317.45L243.45395 308.85626L244.51645 308.85626L244.51645 317.45L243.45395 317.45ZM246.06332 314.8719L246.06332 313.8094L249.31332 313.8094L249.31332 314.8719L246.06332 314.8719ZM250.18832 313.21564Q250.18832 311.6844 250.50082 310.7625Q250.81332 309.825 251.4227 309.325Q252.0477 308.825 252.9852 308.825Q253.6727 308.825 254.18832 309.10626Q254.71957 309.3875 255.06332 309.91876Q255.40707 310.4344 255.59457 311.1844Q255.78207 311.9344 255.78207 313.21564Q255.78207 314.73126 255.46957 315.65314Q255.1727 316.575 254.5477 317.09064Q253.93832 317.59064 252.9852 317.59064Q251.75082 317.59064 251.03207 316.7Q250.18832 315.6375 250.18832 313.21564ZM251.26645 313.21564Q251.26645 315.325 251.76645 316.02814Q252.26645 316.73126 252.9852 316.73126Q253.71957 316.73126 254.20395 316.02814Q254.70395 315.325 254.70395 313.21564Q254.70395 311.09064 254.20395 310.40314Q253.71957 309.7 252.96957 309.7Q252.25082 309.7 251.81332 310.3094Q251.26645 311.09064 251.26645 313.21564ZM257.25082 309.98126L257.25082 308.96564L262.81332 308.96564L262.81332 309.79376Q262.00082 310.66876 261.18832 312.1219Q260.39145 313.5594 259.95395 315.09064Q259.62582 316.16876 259.5477 317.45L258.45395 317.45Q258.46957 316.4344 258.84457 314.9969Q259.2352 313.5594 259.93832 312.23126Q260.65707 310.90314 261.46957 309.98126L257.25082 309.98126Z" fill-rule="nonzero"/><path fill="#000000" d="M358.6701 313.2625Q358.6701 311.1219 359.81073 309.91876Q360.96698 308.7 362.77948 308.7Q363.9826 308.7 364.93573 309.27814Q365.88885 309.84064 366.38885 310.85626Q366.88885 311.8719 366.88885 313.16876Q366.88885 314.46564 366.3576 315.4969Q365.82635 316.52814 364.8576 317.0594Q363.90448 317.59064 362.77948 317.59064Q361.56073 317.59064 360.6076 317.0125Q359.65448 316.41876 359.15448 315.41876Q358.6701 314.40314 358.6701 313.2625ZM359.84198 313.27814Q359.84198 314.84064 360.6701 315.73126Q361.51385 316.6219 362.77948 316.6219Q364.06073 316.6219 364.88885 315.73126Q365.71698 314.825 365.71698 313.15314Q365.71698 312.10626 365.3576 311.325Q365.01385 310.54376 364.32635 310.1219Q363.63885 309.6844 362.7951 309.6844Q361.59198 309.6844 360.71698 310.5125Q359.84198 311.34064 359.84198 313.27814ZM371.95135 315.16876L372.9826 315.3094Q372.81073 316.3719 372.1076 316.98126Q371.40448 317.59064 370.38885 317.59064Q369.1076 317.59064 368.32635 316.7625Q367.56073 315.91876 367.56073 314.35626Q367.56073 313.35626 367.88885 312.60626Q368.2326 311.84064 368.90448 311.46564Q369.59198 311.09064 370.40448 311.09064Q371.40448 311.09064 372.0451 311.60626Q372.70135 312.10626 372.88885 313.0594L371.8576 313.21564Q371.71698 312.59064 371.34198 312.27814Q370.96698 311.95 370.43573 311.95Q369.63885 311.95 369.13885 312.52814Q368.63885 313.09064 368.63885 314.325Q368.63885 315.59064 369.12323 316.15314Q369.6076 316.71564 370.37323 316.71564Q370.99823 316.71564 371.40448 316.34064Q371.82635 315.96564 371.95135 315.16876ZM376.18573 316.5125L376.34198 317.4344Q375.88885 317.52814 375.5451 317.52814Q374.96698 317.52814 374.65448 317.35626Q374.34198 317.16876 374.20135 316.8719Q374.07635 316.575 374.07635 315.6219L374.07635 312.04376L373.31073 312.04376L373.31073 311.23126L374.07635 311.23126L374.07635 309.6844L375.12323 309.0594L375.12323 311.23126L376.18573 311.23126L376.18573 312.04376L375.12323 312.04376L375.12323 315.6844Q375.12323 316.1375 375.1701 316.2625Q375.2326 316.3875 375.3576 316.46564Q375.4826 316.54376 375.71698 316.54376Q375.90448 316.54376 376.18573 316.5125ZM376.46698 314.8719L376.46698 313.8094L379.71698 313.8094L379.71698 314.8719L376.46698 314.8719ZM380.59198 313.21564Q380.59198 311.6844 380.90448 310.7625Q381.21698 309.825 381.82635 309.325Q382.45135 308.825 383.38885 308.825Q384.07635 308.825 384.59198 309.10626Q385.12323 309.3875 385.46698 309.91876Q385.81073 310.4344 385.99823 311.1844Q386.18573 311.9344 386.18573 313.21564Q386.18573 314.73126 385.87323 315.65314Q385.57635 316.575 384.95135 317.09064Q384.34198 317.59064 383.38885 317.59064Q382.15448 317.59064 381.43573 316.7Q380.59198 315.6375 380.59198 313.21564ZM381.6701 313.21564Q381.6701 315.325 382.1701 316.02814Q382.6701 316.73126 383.38885 316.73126Q384.12323 316.73126 384.6076 316.02814Q385.1076 315.325 385.1076 313.21564Q385.1076 311.09064 384.6076 310.40314Q384.12323 309.7 383.37323 309.7Q382.65448 309.7 382.21698 310.3094Q381.6701 311.09064 381.6701 313.21564ZM387.65448 309.98126L387.65448 308.96564L393.21698 308.96564L393.21698 309.79376Q392.40448 310.66876 391.59198 312.1219Q390.7951 313.5594 390.3576 315.09064Q390.02948 316.16876 389.95135 317.45L388.8576 317.45Q388.87323 316.4344 389.24823 314.9969Q389.63885 313.5594 390.34198 312.23126Q391.06073 310.90314 391.87323 309.98126L387.65448 309.98126Z" fill-rule="nonzero"/><path fill="#000000" d="M486.83942 315.0125L487.87067 314.8719Q487.90192 315.85626 488.23004 316.21564Q488.55817 316.575 489.15192 316.575Q489.5738 316.575 489.8863 316.3875Q490.1988 316.1844 490.30817 315.85626Q490.43317 315.5125 490.43317 314.77814L490.43317 308.85626L491.55817 308.85626L491.55817 314.71564Q491.55817 315.79376 491.29254 316.3875Q491.04254 316.98126 490.48004 317.29376Q489.91754 317.59064 489.15192 317.59064Q488.02692 317.59064 487.41754 316.95Q486.8238 316.29376 486.83942 315.0125ZM497.35504 316.6844Q496.7613 317.1844 496.21442 317.3875Q495.68317 317.59064 495.05817 317.59064Q494.02692 317.59064 493.48004 317.09064Q492.93317 316.59064 492.93317 315.8094Q492.93317 315.35626 493.1363 314.98126Q493.33942 314.59064 493.68317 314.3719Q494.02692 314.1375 494.4488 314.02814Q494.74567 313.9344 495.3863 313.85626Q496.65192 313.71564 497.2613 313.4969Q497.2613 313.27814 497.2613 313.23126Q497.2613 312.575 496.96442 312.3094Q496.55817 311.96564 495.7613 311.96564Q495.02692 311.96564 494.66754 312.23126Q494.30817 312.48126 494.1363 313.1375L493.10504 312.9969Q493.24567 312.34064 493.5738 311.9344Q493.90192 311.52814 494.5113 311.3094Q495.12067 311.09064 495.91754 311.09064Q496.71442 311.09064 497.21442 311.27814Q497.71442 311.46564 497.9488 311.7469Q498.18317 312.02814 498.27692 312.46564Q498.3238 312.73126 498.3238 313.4344L498.3238 314.84064Q498.3238 316.3094 498.3863 316.7Q498.46442 317.09064 498.66754 317.45L497.55817 317.45Q497.40192 317.1219 497.35504 316.6844ZM497.2613 314.325Q496.68317 314.5594 495.54254 314.73126Q494.8863 314.825 494.62067 314.95Q494.35504 315.0594 494.1988 315.27814Q494.05817 315.4969 494.05817 315.77814Q494.05817 316.2 494.37067 316.48126Q494.6988 316.7625 495.30817 316.7625Q495.91754 316.7625 496.3863 316.4969Q496.87067 316.23126 497.08942 315.7625Q497.2613 315.40314 497.2613 314.71564L497.2613 314.325ZM500.29254 317.45L500.29254 311.23126L501.23004 311.23126L501.23004 312.10626Q501.91754 311.09064 503.21442 311.09064Q503.77692 311.09064 504.24567 311.29376Q504.73004 311.4969 504.96442 311.825Q505.1988 312.15314 505.29254 312.59064Q505.33942 312.8875 505.33942 313.6219L505.33942 317.45L504.29254 317.45L504.29254 313.66876Q504.29254 313.0125 504.16754 312.7Q504.04254 312.3875 503.73004 312.2Q503.41754 311.9969 502.99567 311.9969Q502.3238 311.9969 501.8238 312.4344Q501.33942 312.85626 501.33942 314.04376L501.33942 317.45L500.29254 317.45ZM506.87067 314.8719L506.87067 313.8094L510.12067 313.8094L510.12067 314.8719L506.87067 314.8719ZM510.99567 313.21564Q510.99567 311.6844 511.30817 310.7625Q511.62067 309.825 512.23004 309.325Q512.85504 308.825 513.79254 308.825Q514.48004 308.825 514.99567 309.10626Q515.5269 309.3875 515.87067 309.91876Q516.2144 310.4344 516.4019 311.1844Q516.5894 311.9344 516.5894 313.21564Q516.5894 314.73126 516.2769 315.65314Q515.98004 316.575 515.35504 317.09064Q514.74567 317.59064 513.79254 317.59064Q512.55817 317.59064 511.83942 316.7Q510.99567 315.6375 510.99567 313.21564ZM512.0738 313.21564Q512.0738 315.325 512.5738 316.02814Q513.0738 316.73126 513.79254 316.73126Q514.5269 316.73126 515.0113 316.02814Q515.5113 315.325 515.5113 313.21564Q515.5113 311.09064 515.0113 310.40314Q514.5269 309.7 513.7769 309.7Q513.05817 309.7 512.62067 310.3094Q512.0738 311.09064 512.0738 313.21564ZM519.62067 312.79376Q518.9644 312.54376 518.6363 312.10626Q518.3238 311.65314 518.3238 311.04376Q518.3238 310.10626 518.99567 309.46564Q519.68317 308.825 520.79254 308.825Q521.91754 308.825 522.60504 309.48126Q523.29254 310.1375 523.29254 311.075Q523.29254 311.66876 522.98004 312.10626Q522.66754 312.54376 522.0269 312.79376Q522.8238 313.04376 523.23004 313.6219Q523.6363 314.2 523.6363 314.9969Q523.6363 316.09064 522.85504 316.84064Q522.0894 317.59064 520.80817 317.59064Q519.54254 317.59064 518.7613 316.84064Q517.98004 316.09064 517.98004 314.96564Q517.98004 314.1219 518.4019 313.5594Q518.8394 312.9969 519.62067 312.79376ZM519.4019 310.9969Q519.4019 311.60626 519.79254 311.9969Q520.1988 312.3875 520.8238 312.3875Q521.43317 312.3875 521.8238 312.0125Q522.2144 311.6219 522.2144 311.0594Q522.2144 310.48126 521.80817 310.09064Q521.4019 309.6844 520.80817 309.6844Q520.1988 309.6844 519.79254 310.075Q519.4019 310.46564 519.4019 310.9969ZM519.0738 314.96564Q519.0738 315.41876 519.2769 315.84064Q519.49567 316.2625 519.91754 316.4969Q520.3394 316.73126 520.8238 316.73126Q521.5738 316.73126 522.05817 316.2469Q522.55817 315.7625 522.55817 315.0125Q522.55817 314.2469 522.05817 313.7469Q521.55817 313.2469 520.79254 313.2469Q520.04254 313.2469 519.55817 313.7469Q519.0738 314.23126 519.0738 314.96564Z" fill-rule="nonzero"/><path stroke="#4285f4" stroke-width="4.0" stroke-linecap="butt" d="M223.5 61.916668L235.5 61.916668" fill-rule="nonzero"/><path fill="#1a1a1a" d="M244.48438 65.916664L244.48438 57.322914L250.28125 57.322914L250.28125 58.33854L245.625 58.33854L245.625 60.99479L249.65625 60.99479L249.65625 62.010414L245.625 62.010414L245.625 65.916664L244.48438 65.916664ZM250.90625 62.80729Q250.90625 61.072914 251.85938 60.24479Q252.65625 59.55729 253.8125 59.55729Q255.09375 59.55729 255.90625 60.40104Q256.73438 61.229164 256.73438 62.71354Q256.73438 63.916664 256.375 64.604164Q256.01562 65.291664 255.3125 65.68229Q254.625 66.05729 253.8125 66.05729Q252.51562 66.05729 251.70312 65.229164Q250.90625 64.385414 250.90625 62.80729ZM251.98438 62.80729Q251.98438 63.99479 252.5 64.58854Q253.03125 65.18229 253.8125 65.18229Q254.60938 65.18229 255.125 64.58854Q255.64062 63.99479 255.64062 62.77604Q255.64062 61.61979 255.10938 61.02604Q254.59375 60.43229 253.8125 60.43229Q253.03125 60.43229 252.5 61.02604Q251.98438 61.604164 251.98438 62.80729ZM258.26562 65.916664L258.26562 57.322914L259.32812 57.322914L259.32812 65.916664L258.26562 65.916664ZM261.26562 65.916664L261.26562 57.322914L262.32812 57.322914L262.32812 65.916664L261.26562 65.916664ZM263.90625 62.80729Q263.90625 61.072914 264.85938 60.24479Q265.65625 59.55729 266.8125 59.55729Q268.09375 59.55729 268.90625 60.40104Q269.73438 61.229164 269.73438 62.71354Q269.73438 63.916664 269.375 64.604164Q269.01562 65.291664 268.3125 65.68229Q267.625 66.05729 266.8125 66.05729Q265.51562 66.05729 264.70312 65.229164Q263.90625 64.385414 263.90625 62.80729ZM264.98438 62.80729Q264.98438 63.99479 265.5 64.58854Q266.03125 65.18229 266.8125 65.18229Q267.60938 65.18229 268.125 64.58854Q268.64062 63.99479 268.64062 62.77604Q268.64062 61.61979 268.10938 61.02604Q267.59375 60.43229 266.8125 60.43229Q266.03125 60.43229 265.5 61.02604Q264.98438 61.604164 264.98438 62.80729ZM272.4375 65.916664L270.53125 59.697914L271.625 59.697914L272.60938 63.291664L272.98438 64.61979Q273.01562 64.52604 273.3125 63.33854L274.29688 59.697914L275.375 59.697914L276.3125 63.30729L276.625 64.49479L276.98438 63.291664L278.04688 59.697914L279.07812 59.697914L277.125 65.916664L276.03125 65.916664L275.04688 62.18229L274.79688 61.135414L273.54688 65.916664L272.4375 65.916664ZM279.875 64.05729L280.90625 63.90104Q281.0 64.52604 281.39062 64.854164Q281.79688 65.18229 282.53125 65.18229Q283.25 65.18229 283.59375 64.90104Q283.95312 64.604164 283.95312 64.197914Q283.95312 63.83854 283.64062 63.635414Q283.42188 63.49479 282.5625 63.27604Q281.40625 62.979164 280.95312 62.77604Q280.51562 62.55729 280.28125 62.18229Q280.04688 61.80729 280.04688 61.33854Q280.04688 60.93229 280.23438 60.572914Q280.42188 60.21354 280.75 59.979164Q281.0 59.80729 281.42188 59.68229Q281.84375 59.55729 282.34375 59.55729Q283.0625 59.55729 283.60938 59.77604Q284.17188 59.979164 284.4375 60.33854Q284.70312 60.697914 284.79688 61.291664L283.76562 61.43229Q283.70312 60.96354 283.35938 60.697914Q283.03125 60.416664 282.40625 60.416664Q281.6875 60.416664 281.375 60.666664Q281.0625 60.90104 281.0625 61.229164Q281.0625 61.43229 281.1875 61.58854Q281.32812 61.760414 281.59375 61.86979Q281.75 61.93229 282.53125 62.135414Q283.65625 62.447914 284.09375 62.635414Q284.53125 62.822914 284.78125 63.18229Q285.03125 63.541664 285.03125 64.08854Q285.03125 64.61979 284.71875 65.08854Q284.42188 65.541664 283.84375 65.80729Q283.26562 66.05729 282.53125 66.05729Q281.3125 66.05729 280.67188 65.55729Q280.04688 65.041664 279.875 64.05729Z" fill-rule="nonzero"/><path stroke="#ea4335" stroke-width="4.0" stroke-linecap="butt" d="M302.5 61.916668L314.5 61.916668" fill-rule="nonzero"/><path fill="#1a1a1a" d="M323.48438 65.916664L323.48438 57.322914L329.28125 57.322914L329.28125 58.33854L324.625 58.33854L324.625 60.99479L328.65625 60.99479L328.65625 62.010414L324.625 62.010414L324.625 65.916664L323.48438 65.916664ZM329.90625 62.80729Q329.90625 61.072914 330.85938 60.24479Q331.65625 59.55729 332.8125 59.55729Q334.09375 59.55729 334.90625 60.40104Q335.73438 61.229164 335.73438 62.71354Q335.73438 63.916664 335.375 64.604164Q335.01562 65.291664 334.3125 65.68229Q333.625 66.05729 332.8125 66.05729Q331.51562 66.05729 330.70312 65.229164Q329.90625 64.385414 329.90625 62.80729ZM330.98438 62.80729Q330.98438 63.99479 331.5 64.58854Q332.03125 65.18229 332.8125 65.18229Q333.60938 65.18229 334.125 64.58854Q334.64062 63.99479 334.64062 62.77604Q334.64062 61.61979 334.10938 61.02604Q333.59375 60.43229 332.8125 60.43229Q332.03125 60.43229 331.5 61.02604Q330.98438 61.604164 330.98438 62.80729ZM337.26562 65.916664L337.26562 57.322914L338.32812 57.322914L338.32812 65.916664L337.26562 65.916664ZM340.26562 65.916664L340.26562 57.322914L341.32812 57.322914L341.32812 65.916664L340.26562 65.916664ZM342.90625 62.80729Q342.90625 61.072914 343.85938 60.24479Q344.65625 59.55729 345.8125 59.55729Q347.09375 59.55729 347.90625 60.40104Q348.73438 61.229164 348.73438 62.71354Q348.73438 63.916664 348.375 64.604164Q348.01562 65.291664 347.3125 65.68229Q346.625 66.05729 345.8125 66.05729Q344.51562 66.05729 343.70312 65.229164Q342.90625 64.385414 342.90625 62.80729ZM343.98438 62.80729Q343.98438 63.99479 344.5 64.58854Q345.03125 65.18229 345.8125 65.18229Q346.60938 65.18229 347.125 64.58854Q347.64062 63.99479 347.64062 62.77604Q347.64062 61.61979 347.10938 61.02604Q346.59375 60.43229 345.8125 60.43229Q345.03125 60.43229 344.5 61.02604Q343.98438 61.604164 343.98438 62.80729ZM351.4375 65.916664L349.53125 59.697914L350.625 59.697914L351.60938 63.291664L351.98438 64.61979Q352.01562 64.52604 352.3125 63.33854L353.29688 59.697914L354.375 59.697914L355.3125 63.30729L355.625 64.49479L355.98438 63.291664L357.04688 59.697914L358.07812 59.697914L356.125 65.916664L355.03125 65.916664L354.04688 62.18229L353.79688 61.135414L352.54688 65.916664L351.4375 65.916664ZM363.54688 63.916664L364.64062 64.041664Q364.39062 64.99479 363.6875 65.52604Q362.98438 66.05729 361.90625 66.05729Q360.54688 66.05729 359.73438 65.21354Q358.9375 64.36979 358.9375 62.854164Q358.9375 61.291664 359.75 60.43229Q360.5625 59.55729 361.84375 59.55729Q363.09375 59.55729 363.875 60.40104Q364.67188 61.24479 364.67188 62.791664Q364.67188 62.885414 364.67188 63.072914L360.03125 63.072914Q360.09375 64.104164 360.60938 64.65104Q361.125 65.18229 361.90625 65.18229Q362.48438 65.18229 362.89062 64.885414Q363.3125 64.572914 363.54688 63.916664ZM360.09375 62.21354L363.5625 62.21354Q363.5 61.416664 363.17188 61.02604Q362.65625 60.416664 361.85938 60.416664Q361.125 60.416664 360.625 60.90104Q360.14062 61.385414 360.09375 62.21354ZM366.28125 65.916664L366.28125 59.697914L367.23438 59.697914L367.23438 60.635414Q367.59375 59.979164 367.89062 59.77604Q368.20312 59.55729 368.57812 59.55729Q369.10938 59.55729 369.65625 59.885414L369.29688 60.86979Q368.90625 60.635414 368.53125 60.635414Q368.17188 60.635414 367.89062 60.854164Q367.625 61.05729 367.51562 61.43229Q367.32812 61.99479 367.32812 62.65104L367.32812 65.916664L366.28125 65.916664ZM369.875 64.05729L370.90625 63.90104Q371.0 64.52604 371.39062 64.854164Q371.79688 65.18229 372.53125 65.18229Q373.25 65.18229 373.59375 64.90104Q373.95312 64.604164 373.95312 64.197914Q373.95312 63.83854 373.64062 63.635414Q373.42188 63.49479 372.5625 63.27604Q371.40625 62.979164 370.95312 62.77604Q370.51562 62.55729 370.28125 62.18229Q370.04688 61.80729 370.04688 61.33854Q370.04688 60.93229 370.23438 60.572914Q370.42188 60.21354 370.75 59.979164Q371.0 59.80729 371.42188 59.68229Q371.84375 59.55729 372.34375 59.55729Q373.0625 59.55729 373.60938 59.77604Q374.17188 59.979164 374.4375 60.33854Q374.70312 60.697914 374.79688 61.291664L373.76562 61.43229Q373.70312 60.96354 373.35938 60.697914Q373.03125 60.416664 372.40625 60.416664Q371.6875 60.416664 371.375 60.666664Q371.0625 60.90104 371.0625 61.229164Q371.0625 61.43229 371.1875 61.58854Q371.32812 61.760414 371.59375 61.86979Q371.75 61.93229 372.53125 62.135414Q373.65625 62.447914 374.09375 62.635414Q374.53125 62.822914 374.78125 63.18229Q375.03125 63.541664 375.03125 64.08854Q375.03125 64.61979 374.71875 65.08854Q374.42188 65.541664 373.84375 65.80729Q373.26562 66.05729 372.53125 66.05729Q371.3125 66.05729 370.67188 65.55729Q370.04688 65.041664 369.875 64.05729Z" fill-rule="nonzero"/><path fill="#757575" d="M20.128124 37.55L20.128124 23.2375L30.4875 23.2375L30.4875 24.925L22.034374 24.925L22.034374 29.3L29.940624 29.3L29.940624 30.9875L22.034374 30.9875L22.034374 35.8625L30.815624 35.8625L30.815624 37.55L20.128124 37.55ZM39.64375 36.26875Q38.659374 37.096874 37.753124 37.440624Q36.846874 37.784374 35.815624 37.784374Q34.1125 37.784374 33.190624 36.95625Q32.26875 36.1125 32.26875 34.815624Q32.26875 34.05 32.6125 33.425Q32.971874 32.8 33.534374 32.425Q34.096874 32.034374 34.8 31.83125Q35.315624 31.70625 36.3625 31.565624Q38.4875 31.315624 39.4875 30.971874Q39.503124 30.6125 39.503124 30.503124Q39.503124 29.440624 39.003124 28.9875Q38.33125 28.39375 37.003124 28.39375Q35.753124 28.39375 35.159374 28.83125Q34.58125 29.26875 34.3 30.378124L32.58125 30.14375Q32.815624 29.034374 33.346874 28.3625Q33.878124 27.675 34.89375 27.315624Q35.909374 26.940624 37.253124 26.940624Q38.58125 26.940624 39.409374 27.253124Q40.2375 27.565624 40.628124 28.05Q41.01875 28.51875 41.175 29.2375Q41.26875 29.690624 41.26875 30.8625L41.26875 33.20625Q41.26875 35.659374 41.378124 36.315624Q41.4875 36.95625 41.83125 37.55L39.9875 37.55Q39.721874 37.003124 39.64375 36.26875ZM39.4875 32.346874Q38.534374 32.7375 36.6125 33.003124Q35.534374 33.159374 35.08125 33.3625Q34.64375 33.55 34.39375 33.925Q34.14375 34.3 34.14375 34.76875Q34.14375 35.471874 34.675 35.940624Q35.20625 36.409374 36.2375 36.409374Q37.253124 36.409374 38.034374 35.971874Q38.83125 35.51875 39.20625 34.753124Q39.4875 34.14375 39.4875 32.9875L39.4875 32.346874ZM43.846874 37.55L43.846874 27.175L45.425 27.175L45.425 28.753124Q46.034374 27.64375 46.55 27.3Q47.065624 26.940624 47.675 26.940624Q48.565624 26.940624 49.4875 27.503124L48.878124 29.14375Q48.2375 28.753124 47.596874 28.753124Q47.01875 28.753124 46.55 29.1125Q46.096874 29.45625 45.89375 30.065624Q45.6125 31.003124 45.6125 32.1125L45.6125 37.55L43.846874 37.55ZM50.83125 37.55L50.83125 23.2375L52.58125 23.2375L52.58125 37.55L50.83125 37.55ZM54.784374 41.55L54.596874 39.89375Q55.175 40.05 55.596874 40.05Q56.190624 40.05 56.534374 39.846874Q56.89375 39.659374 57.1125 39.315624Q57.284374 39.05 57.659374 38.003124Q57.70625 37.846874 57.815624 37.565624L53.878124 27.175L55.76875 27.175L57.925 33.190624Q58.346874 34.33125 58.675 35.58125Q58.9875 34.378124 59.39375 33.221874L61.6125 27.175L63.378124 27.175L59.425 37.721874Q58.8 39.440624 58.440624 40.08125Q57.971874 40.95625 57.3625 41.346874Q56.76875 41.753124 55.925 41.753124Q55.409374 41.753124 54.784374 41.55ZM74.7375 37.55L74.7375 24.925L70.01875 24.925L70.01875 23.2375L81.3625 23.2375L81.3625 24.925L76.62813 24.925L76.62813 37.55L74.7375 37.55ZM84.78438 37.55L81.6125 27.175L83.425 27.175L85.08125 33.159374L85.69063 35.39375Q85.7375 35.221874 86.22188 33.253124L87.87813 27.175L89.69063 27.175L91.2375 33.190624L91.75313 35.175L92.34688 33.175L94.12813 27.175L95.83125 27.175L92.59688 37.55L90.76875 37.55L89.1125 31.33125L88.72188 29.565624L86.6125 37.55L84.78438 37.55ZM97.87813 25.253124L97.87813 23.2375L99.64375 23.2375L99.64375 25.253124L97.87813 25.253124ZM97.87813 37.55L97.87813 27.175L99.64375 27.175L99.64375 37.55L97.87813 37.55ZM105.70625 35.971874L105.95625 37.534374Q105.22188 37.690624 104.62813 37.690624Q103.675 37.690624 103.14375 37.39375Q102.62813 37.08125 102.40938 36.596874Q102.19063 36.096874 102.19063 34.51875L102.19063 28.55L100.90938 28.55L100.90938 27.175L102.19063 27.175L102.19063 24.6125L103.94063 23.55L103.94063 27.175L105.70625 27.175L105.70625 28.55L103.94063 28.55L103.94063 34.6125Q103.94063 35.3625 104.03438 35.58125Q104.12813 35.784374 104.33125 35.925Q104.55 36.05 104.94063 36.05Q105.22188 36.05 105.70625 35.971874ZM111.70625 35.971874L111.95625 37.534374Q111.22188 37.690624 110.62813 37.690624Q109.675 37.690624 109.14375 37.39375Q108.62813 37.08125 108.40938 36.596874Q108.19063 36.096874 108.19063 34.51875L108.19063 28.55L106.90938 28.55L106.90938 27.175L108.19063 27.175L108.19063 24.6125L109.94063 23.55L109.94063 27.175L111.70625 27.175L111.70625 28.55L109.94063 28.55L109.94063 34.6125Q109.94063 35.3625 110.03438 35.58125Q110.12813 35.784374 110.33125 35.925Q110.55 36.05 110.94063 36.05Q111.22188 36.05 111.70625 35.971874ZM120.97188 34.20625L122.78438 34.440624Q122.3625 36.01875 121.19063 36.909374Q120.03438 37.784374 118.22188 37.784374Q115.95625 37.784374 114.6125 36.39375Q113.28438 34.9875 113.28438 32.45625Q113.28438 29.83125 114.62813 28.39375Q115.97188 26.940624 118.12813 26.940624Q120.20625 26.940624 121.51875 28.3625Q122.84688 29.76875 122.84688 32.346874Q122.84688 32.503124 122.83125 32.815624L115.09688 32.815624Q115.19063 34.51875 116.06563 35.425Q116.94063 36.33125 118.2375 36.33125Q119.20625 36.33125 119.87813 35.83125Q120.56563 35.315624 120.97188 34.20625ZM115.19063 31.3625L120.9875 31.3625Q120.87813 30.065624 120.33125 29.409374Q119.4875 28.39375 118.14375 28.39375Q116.94063 28.39375 116.1125 29.20625Q115.28438 30.003124 115.19063 31.3625ZM124.84688 37.55L124.84688 27.175L126.425 27.175L126.425 28.753124Q127.03438 27.64375 127.55 27.3Q128.06563 26.940624 128.675 26.940624Q129.56563 26.940624 130.4875 27.503124L129.87813 29.14375Q129.2375 28.753124 128.59688 28.753124Q128.01875 28.753124 127.55 29.1125Q127.09688 29.45625 126.89375 30.065624Q126.6125 31.003124 126.6125 32.1125L126.6125 37.55L124.84688 37.55ZM132.3625 29.175L132.3625 27.175L134.3625 27.175L134.3625 29.175L132.3625 29.175ZM132.3625 37.55L132.3625 35.55L134.3625 35.55L134.3625 37.55L132.3625 37.55ZM144.40938 37.55L144.40938 23.2375L146.31563 23.2375L146.31563 37.55L144.40938 37.55ZM162.59688 37.55L162.59688 36.2375Q161.6125 37.784374 159.69063 37.784374Q158.45625 37.784374 157.40938 37.096874Q156.37813 36.409374 155.8 35.190624Q155.2375 33.971874 155.2375 32.378124Q155.2375 30.815624 155.75313 29.55Q156.26875 28.284374 157.3 27.6125Q158.34688 26.940624 159.6125 26.940624Q160.55 26.940624 161.28438 27.346874Q162.01875 27.7375 162.4875 28.3625L162.4875 23.2375L164.22188 23.2375L164.22188 37.55L162.59688 37.55ZM157.03438 32.378124Q157.03438 34.3625 157.87813 35.346874Q158.72188 36.33125 159.8625 36.33125Q161.01875 36.33125 161.81563 35.39375Q162.62813 34.45625 162.62813 32.51875Q162.62813 30.39375 161.8 29.39375Q160.9875 28.39375 159.78438 28.39375Q158.6125 28.39375 157.81563 29.3625Q157.03438 30.315624 157.03438 32.378124ZM166.87813 25.253124L166.87813 23.2375L168.64375 23.2375L168.64375 25.253124L166.87813 25.253124ZM166.87813 37.55L166.87813 27.175L168.64375 27.175L168.64375 37.55L166.87813 37.55ZM177.59688 37.55L177.59688 36.2375Q176.6125 37.784374 174.69063 37.784374Q173.45625 37.784374 172.40938 37.096874Q171.37813 36.409374 170.8 35.190624Q170.2375 33.971874 170.2375 32.378124Q170.2375 30.815624 170.75313 29.55Q171.26875 28.284374 172.3 27.6125Q173.34688 26.940624 174.6125 26.940624Q175.55 26.940624 176.28438 27.346874Q177.01875 27.7375 177.4875 28.3625L177.4875 23.2375L179.22188 23.2375L179.22188 37.55L177.59688 37.55ZM172.03438 32.378124Q172.03438 34.3625 172.87813 35.346874Q173.72188 36.33125 174.8625 36.33125Q176.01875 36.33125 176.81563 35.39375Q177.62813 34.45625 177.62813 32.51875Q177.62813 30.39375 176.8 29.39375Q175.9875 28.39375 174.78438 28.39375Q173.6125 28.39375 172.81563 29.3625Q172.03438 30.315624 172.03438 32.378124ZM181.8625 37.55L181.8625 27.175L183.45625 27.175L183.45625 28.659374Q184.59688 26.940624 186.75313 26.940624Q187.69063 26.940624 188.47188 27.284374Q189.26875 27.6125 189.65938 28.159374Q190.05 28.70625 190.20625 29.45625Q190.3 29.95625 190.3 31.175L190.3 37.55L188.53438 37.55L188.53438 31.2375Q188.53438 30.159374 188.33125 29.628124Q188.12813 29.096874 187.59688 28.784374Q187.08125 28.471874 186.37813 28.471874Q185.25313 28.471874 184.44063 29.190624Q183.62813 29.89375 183.62813 31.878124L183.62813 37.55L181.8625 37.55ZM191.87813 28.3L191.425 25.628124L191.425 23.2375L193.425 23.2375L193.425 25.628124L192.95625 28.3L191.87813 28.3ZM199.70625 35.971874L199.95625 37.534374Q199.22188 37.690624 198.62813 37.690624Q197.675 37.690624 197.14375 37.39375Q196.62813 37.08125 196.40938 36.596874Q196.19063 36.096874 196.19063 34.51875L196.19063 28.55L194.90938 28.55L194.90938 27.175L196.19063 27.175L196.19063 24.6125L197.94063 23.55L197.94063 27.175L199.70625 27.175L199.70625 28.55L197.94063 28.55L197.94063 34.6125Q197.94063 35.3625 198.03438 35.58125Q198.12813 35.784374 198.33125 35.925Q198.55 36.05 198.94063 36.05Q199.22188 36.05 199.70625 35.971874ZM214.64375 36.26875Q213.65938 37.096874 212.75313 37.440624Q211.84688 37.784374 210.81563 37.784374Q209.1125 37.784374 208.19063 36.95625Q207.26875 36.1125 207.26875 34.815624Q207.26875 34.05 207.6125 33.425Q207.97188 32.8 208.53438 32.425Q209.09688 32.034374 209.8 31.83125Q210.31563 31.70625 211.3625 31.565624Q213.4875 31.315624 214.4875 30.971874Q214.50313 30.6125 214.50313 30.503124Q214.50313 29.440624 214.00313 28.9875Q213.33125 28.39375 212.00313 28.39375Q210.75313 28.39375 210.15938 28.83125Q209.58125 29.26875 209.3 30.378124L207.58125 30.14375Q207.81563 29.034374 208.34688 28.3625Q208.87813 27.675 209.89375 27.315624Q210.90938 26.940624 212.25313 26.940624Q213.58125 26.940624 214.40938 27.253124Q215.2375 27.565624 215.62813 28.05Q216.01875 28.51875 216.175 29.2375Q216.26875 29.690624 216.26875 30.8625L216.26875 33.20625Q216.26875 35.659374 216.37813 36.315624Q216.4875 36.95625 216.83125 37.55L214.9875 37.55Q214.72188 37.003124 214.64375 36.26875ZM214.4875 32.346874Q213.53438 32.7375 211.6125 33.003124Q210.53438 33.159374 210.08125 33.3625Q209.64375 33.55 209.39375 33.925Q209.14375 34.3 209.14375 34.76875Q209.14375 35.471874 209.675 35.940624Q210.20625 36.409374 211.2375 36.409374Q212.25313 36.409374 213.03438 35.971874Q213.83125 35.51875 214.20625 34.753124Q214.4875 34.14375 214.4875 32.9875L214.4875 32.346874ZM218.83125 37.55L218.83125 23.2375L220.58125 23.2375L220.58125 37.55L218.83125 37.55ZM224.78438 37.55L221.6125 27.175L223.425 27.175L225.08125 33.159374L225.69063 35.39375Q225.7375 35.221874 226.22188 33.253124L227.87813 27.175L229.69063 27.175L231.2375 33.190624L231.75313 35.175L232.34688 33.175L234.12813 27.175L235.83125 27.175L232.59688 37.55L230.76875 37.55L229.1125 31.33125L228.72188 29.565624L226.6125 37.55L224.78438 37.55ZM244.64375 36.26875Q243.65938 37.096874 242.75313 37.440624Q241.84688 37.784374 240.81563 37.784374Q239.1125 37.784374 238.19063 36.95625Q237.26875 36.1125 237.26875 34.815624Q237.26875 34.05 237.6125 33.425Q237.97188 32.8 238.53438 32.425Q239.09688 32.034374 239.8 31.83125Q240.31563 31.70625 241.3625 31.565624Q243.4875 31.315624 244.4875 30.971874Q244.50313 30.6125 244.50313 30.503124Q244.50313 29.440624 244.00313 28.9875Q243.33125 28.39375 242.00313 28.39375Q240.75313 28.39375 240.15938 28.83125Q239.58125 29.26875 239.3 30.378124L237.58125 30.14375Q237.81563 29.034374 238.34688 28.3625Q238.87813 27.675 239.89375 27.315624Q240.90938 26.940624 242.25313 26.940624Q243.58125 26.940624 244.40938 27.253124Q245.2375 27.565624 245.62813 28.05Q246.01875 28.51875 246.175 29.2375Q246.26875 29.690624 246.26875 30.8625L246.26875 33.20625Q246.26875 35.659374 246.37813 36.315624Q246.4875 36.95625 246.83125 37.55L244.9875 37.55Q244.72188 37.003124 244.64375 36.26875ZM244.4875 32.346874Q243.53438 32.7375 241.6125 33.003124Q240.53438 33.159374 240.08125 33.3625Q239.64375 33.55 239.39375 33.925Q239.14375 34.3 239.14375 34.76875Q239.14375 35.471874 239.675 35.940624Q240.20625 36.409374 241.2375 36.409374Q242.25313 36.409374 243.03438 35.971874Q243.83125 35.51875 244.20625 34.753124Q244.4875 34.14375 244.4875 32.9875L244.4875 32.346874ZM248.78438 41.55L248.59688 39.89375Q249.175 40.05 249.59688 40.05Q250.19063 40.05 250.53438 39.846874Q250.89375 39.659374 251.1125 39.315624Q251.28438 39.05 251.65938 38.003124Q251.70625 37.846874 251.81563 37.565624L247.87813 27.175L249.76875 27.175L251.925 33.190624Q252.34688 34.33125 252.675 35.58125Q252.9875 34.378124 253.39375 33.221874L255.6125 27.175L257.3781 27.175L253.425 37.721874Q252.8 39.440624 252.44063 40.08125Q251.97188 40.95625 251.3625 41.346874Q250.76875 41.753124 249.925 41.753124Q249.40938 41.753124 248.78438 41.55ZM258.15936 34.45625L259.90936 34.175Q260.05 35.221874 260.72186 35.784374Q261.39374 36.33125 262.59686 36.33125Q263.8 36.33125 264.3781 35.846874Q264.97186 35.346874 264.97186 34.690624Q264.97186 34.096874 264.45624 33.753124Q264.09686 33.51875 262.65936 33.159374Q260.72186 32.659374 259.97186 32.315624Q259.2375 31.95625 258.84686 31.33125Q258.45624 30.690624 258.45624 29.925Q258.45624 29.2375 258.76874 28.64375Q259.09686 28.05 259.64374 27.659374Q260.05 27.3625 260.7531 27.159374Q261.47186 26.940624 262.28436 26.940624Q263.5031 26.940624 264.425 27.3Q265.34686 27.64375 265.78436 28.253124Q266.22186 28.846874 266.39374 29.846874L264.675 30.08125Q264.55 29.284374 263.9875 28.846874Q263.425 28.39375 262.40936 28.39375Q261.1906 28.39375 260.675 28.8Q260.15936 29.190624 260.15936 29.721874Q260.15936 30.065624 260.3781 30.346874Q260.58124 30.628124 261.05 30.815624Q261.3156 30.909374 262.59686 31.253124Q264.47186 31.753124 265.20624 32.08125Q265.9406 32.39375 266.3625 33.003124Q266.78436 33.596874 266.78436 34.503124Q266.78436 35.378124 266.26874 36.159374Q265.7531 36.940624 264.78436 37.3625Q263.8156 37.784374 262.59686 37.784374Q260.58124 37.784374 259.51874 36.940624Q258.45624 36.096874 258.15936 34.45625ZM275.28436 37.55L275.28436 28.55L273.7375 28.55L273.7375 27.175L275.28436 27.175L275.28436 26.08125Q275.28436 25.034374 275.47186 24.51875Q275.72186 23.83125 276.3625 23.409374Q277.0031 22.9875 278.15936 22.9875Q278.90936 22.9875 279.8 23.159374L279.53436 24.690624Q278.9875 24.596874 278.5031 24.596874Q277.70624 24.596874 277.3625 24.940624Q277.03436 25.284374 277.03436 26.221874L277.03436 27.175L279.0656 27.175L279.0656 28.55L277.03436 28.55L277.03436 37.55L275.28436 37.55ZM280.22186 32.3625Q280.22186 29.4875 281.8156 28.096874Q283.15936 26.940624 285.08124 26.940624Q287.22186 26.940624 288.5656 28.346874Q289.925 29.753124 289.925 32.221874Q289.925 34.221874 289.33124 35.378124Q288.7375 36.51875 287.58124 37.159374Q286.4406 37.784374 285.08124 37.784374Q282.89374 37.784374 281.55 36.39375Q280.22186 34.9875 280.22186 32.3625ZM282.01874 32.3625Q282.01874 34.3625 282.8781 35.346874Q283.7531 36.33125 285.08124 36.33125Q286.39374 36.33125 287.2531 35.346874Q288.1281 34.346874 288.1281 32.3Q288.1281 30.378124 287.2531 29.39375Q286.3781 28.39375 285.08124 28.39375Q283.7531 28.39375 282.8781 29.39375Q282.01874 30.378124 282.01874 32.3625ZM291.83124 37.55L291.83124 23.2375L293.58124 23.2375L293.58124 37.55L291.83124 37.55ZM295.83124 37.55L295.83124 23.2375L297.58124 23.2375L297.58124 37.55L295.83124 37.55ZM299.22186 32.3625Q299.22186 29.4875 300.8156 28.096874Q302.15936 26.940624 304.08124 26.940624Q306.22186 26.940624 307.5656 28.346874Q308.925 29.753124 308.925 32.221874Q308.925 34.221874 308.33124 35.378124Q307.7375 36.51875 306.58124 37.159374Q305.4406 37.784374 304.08124 37.784374Q301.89374 37.784374 300.55 36.39375Q299.22186 34.9875 299.22186 32.3625ZM301.01874 32.3625Q301.01874 34.3625 301.8781 35.346874Q302.7531 36.33125 304.08124 36.33125Q305.39374 36.33125 306.2531 35.346874Q307.1281 34.346874 307.1281 32.3Q307.1281 30.378124 306.2531 29.39375Q305.3781 28.39375 304.08124 28.39375Q302.7531 28.39375 301.8781 29.39375Q301.01874 30.378124 301.01874 32.3625ZM312.78436 37.55L309.6125 27.175L311.425 27.175L313.08124 33.159374L313.6906 35.39375Q313.7375 35.221874 314.22186 33.253124L315.8781 27.175L317.6906 27.175L319.2375 33.190624L319.7531 35.175L320.34686 33.175L322.1281 27.175L323.83124 27.175L320.59686 37.55L318.76874 37.55L317.1125 31.33125L316.72186 29.565624L314.6125 37.55L312.78436 37.55ZM333.4875 37.55L331.8625 37.55L331.8625 23.2375L333.6125 23.2375L333.6125 28.346874Q334.7375 26.940624 336.45624 26.940624Q337.40936 26.940624 338.26874 27.33125Q339.1281 27.721874 339.675 28.425Q340.22186 29.1125 340.53436 30.096874Q340.84686 31.08125 340.84686 32.20625Q340.84686 34.878124 339.53436 36.33125Q338.22186 37.784374 336.3781 37.784374Q334.53436 37.784374 333.4875 36.253124L333.4875 37.55ZM333.47186 32.284374Q333.47186 34.14375 333.97186 34.9875Q334.8156 36.33125 336.22186 36.33125Q337.3781 36.33125 338.20624 35.33125Q339.05 34.33125 339.05 32.346874Q339.05 30.315624 338.2375 29.3625Q337.4406 28.39375 336.3 28.39375Q335.14374 28.39375 334.3 29.39375Q333.47186 30.39375 333.47186 32.284374ZM349.64374 36.26875Q348.65936 37.096874 347.7531 37.440624Q346.84686 37.784374 345.8156 37.784374Q344.1125 37.784374 343.1906 36.95625Q342.26874 36.1125 342.26874 34.815624Q342.26874 34.05 342.6125 33.425Q342.97186 32.8 343.53436 32.425Q344.09686 32.034374 344.8 31.83125Q345.3156 31.70625 346.3625 31.565624Q348.4875 31.315624 349.4875 30.971874Q349.5031 30.6125 349.5031 30.503124Q349.5031 29.440624 349.0031 28.9875Q348.33124 28.39375 347.0031 28.39375Q345.7531 28.39375 345.15936 28.83125Q344.58124 29.26875 344.3 30.378124L342.58124 30.14375Q342.8156 29.034374 343.34686 28.3625Q343.8781 27.675 344.89374 27.315624Q345.90936 26.940624 347.2531 26.940624Q348.58124 26.940624 349.40936 27.253124Q350.2375 27.565624 350.6281 28.05Q351.01874 28.51875 351.175 29.2375Q351.26874 29.690624 351.26874 30.8625L351.26874 33.20625Q351.26874 35.659374 351.3781 36.315624Q351.4875 36.95625 351.83124 37.55L349.9875 37.55Q349.72186 37.003124 349.64374 36.26875ZM349.4875 32.346874Q348.53436 32.7375 346.6125 33.003124Q345.53436 33.159374 345.08124 33.3625Q344.64374 33.55 344.39374 33.925Q344.14374 34.3 344.14374 34.76875Q344.14374 35.471874 344.675 35.940624Q345.20624 36.409374 346.2375 36.409374Q347.2531 36.409374 348.03436 35.971874Q348.83124 35.51875 349.20624 34.753124Q349.4875 34.14375 349.4875 32.9875L349.4875 32.346874ZM360.64374 33.753124L362.3625 33.971874Q362.08124 35.76875 360.90936 36.784374Q359.7531 37.784374 358.05 37.784374Q355.925 37.784374 354.6281 36.39375Q353.33124 35.003124 353.33124 32.409374Q353.33124 30.721874 353.8781 29.471874Q354.4406 28.20625 355.58124 27.58125Q356.72186 26.940624 358.0656 26.940624Q359.7531 26.940624 360.8156 27.8Q361.89374 28.659374 362.20624 30.221874L360.4875 30.4875Q360.2531 29.440624 359.6281 28.925Q359.0031 28.39375 358.1281 28.39375Q356.8 28.39375 355.97186 29.346874Q355.14374 30.3 355.14374 32.346874Q355.14374 34.440624 355.9406 35.39375Q356.7375 36.33125 358.03436 36.33125Q359.0656 36.33125 359.7531 35.70625Q360.45624 35.065624 360.64374 33.753124ZM363.8781 37.55L363.8781 23.2375L365.64374 23.2375L365.64374 31.39375L369.8 27.175L372.0656 27.175L368.1125 31.01875L372.47186 37.55L370.3 37.55L366.8781 32.253124L365.64374 33.440624L365.64374 37.55L363.8781 37.55ZM374.3625 37.55L374.3625 35.55L376.3625 35.55L376.3625 37.55L374.3625 37.55Z" fill-rule="nonzero"/></svg>